<?xml version="1.0" encoding="UTF-8" standalone="no"?>
<svg
   height="32"
   viewBox="0 0 16 16"
   width="32"
   fill="#ffffff"
   version="1.1"
   id="svg6"
   sodipodi:docname="cross.svg"
   inkscape:version="1.1 (c68e22c387, 2021-05-23)"
   xmlns:inkscape="http://www.inkscape.org/namespaces/inkscape"
   xmlns:sodipodi="http://sodipodi.sourceforge.net/DTD/sodipodi-0.dtd"
   xmlns="http://www.w3.org/2000/svg"
   xmlns:svg="http://www.w3.org/2000/svg">
  <defs
     id="defs10" />
  <sodipodi:namedview
     id="namedview8"
     pagecolor="#505050"
     bordercolor="#eeeeee"
     borderopacity="1"
     inkscape:pageshadow="0"
     inkscape:pageopacity="0"
     inkscape:pagecheckerboard="0"
     showgrid="false"
     inkscape:zoom="10.577139"
     inkscape:cx="12.668832"
     inkscape:cy="14.890605"
     inkscape:window-width="1920"
     inkscape:window-height="991"
     inkscape:window-x="-9"
     inkscape:window-y="-9"
     inkscape:window-maximized="1"
     inkscape:current-layer="svg6" />
  <path
     d="M 0,0 H 24 V 24 H 0 Z"
     fill="none"
     id="path2" />
  <g
     id="path4">
    <path
       id="path966"
       style="color:#000000;fill:#ffffff;stroke-width:2;-inkscape-stroke:none"
       d="M 5.6289062 2.7851562 C 4.8978066 2.7851562 4.1651584 3.0614041 3.6132812 3.6132812 C 2.5095267 4.7170356 2.5095266 6.5368708 3.6132812 7.640625 L 11.972656 16 L 3.6132812 24.359375 C 2.509528 25.463127 2.5095279 27.282965 3.6132812 28.386719 C 4.7170356 29.490475 6.536871 29.490475 7.640625 28.386719 L 16 20.027344 L 24.359375 28.386719 C 25.463127 29.490473 27.282965 29.490473 28.386719 28.386719 C 29.490473 27.282965 29.490473 25.463127 28.386719 24.359375 L 20.027344 16 L 28.386719 7.640625 C 29.488159 6.5391872 29.488159 4.7342503 28.386719 3.6328125 C 27.282965 2.5290593 25.463127 2.5290593 24.359375 3.6328125 L 16 11.972656 L 7.640625 3.6132812 C 7.088748 3.061404 6.360006 2.7851563 5.6289062 2.7851562 z "
       transform="scale(0.5)" />
  </g>
</svg>
