<?xml version="1.0" encoding="UTF-8" standalone="no"?>
<svg
   height="32"
   viewBox="0 0 16 16"
   width="32"
   fill="#ffffff"
   version="1.1"
   id="svg6"
   sodipodi:docname="folder.svg"
   inkscape:version="1.1 (c68e22c387, 2021-05-23)"
   xmlns:inkscape="http://www.inkscape.org/namespaces/inkscape"
   xmlns:sodipodi="http://sodipodi.sourceforge.net/DTD/sodipodi-0.dtd"
   xmlns="http://www.w3.org/2000/svg"
   xmlns:svg="http://www.w3.org/2000/svg">
  <g
     id="g909"
     transform="matrix(0.79838693,0,0,0.79838693,-1.5806453,-0.82825373)">
    <path
       id="path4"
       style="stroke-width:1.33248"
       d="M 5.3398438 6.8457031 C 3.8741155 6.8457031 2.6894531 8.0440374 2.6894531 9.5097656 L 2.6757812 25.5 C 2.6757812 26.965728 3.8741155 28.164063 5.3398438 28.164062 L 26.660156 28.164062 C 28.125884 28.164062 29.324219 26.965728 29.324219 25.5 L 29.324219 12.175781 C 29.324219 10.710053 28.125884 9.5097656 26.660156 9.5097656 L 16 9.5097656 L 13.335938 6.8457031 L 5.3398438 6.8457031 z M 23.302734 19.035156 A 1.9355821 1.9355821 0 0 1 25.238281 20.970703 A 1.9355821 1.9355821 0 0 1 23.302734 22.90625 A 1.9355821 1.9355821 0 0 1 21.367188 20.970703 A 1.9355821 1.9355821 0 0 1 23.302734 19.035156 z M 8.8183594 19.068359 A 1.9355821 1.9355821 0 0 1 10.753906 21.003906 A 1.9355821 1.9355821 0 0 1 8.8183594 22.939453 A 1.9355821 1.9355821 0 0 1 6.8828125 21.003906 A 1.9355821 1.9355821 0 0 1 8.8183594 19.068359 z M 10.876953 22.855469 L 21.261719 22.855469 C 21.616448 22.855469 21.900391 23.183105 21.900391 23.589844 C 21.900391 23.996583 21.616448 24.324219 21.261719 24.324219 L 10.876953 24.324219 C 10.522223 24.324219 10.238281 23.996583 10.238281 23.589844 C 10.238281 23.183105 10.522223 22.855469 10.876953 22.855469 z "
       transform="matrix(0.62626276,0,0,0.62626276,1.9797986,1.0374089)" />
  </g>
  <defs
     id="defs10" />
  <sodipodi:namedview
     id="namedview8"
     pagecolor="#505050"
     bordercolor="#eeeeee"
     borderopacity="1"
     inkscape:pageshadow="0"
     inkscape:pageopacity="0"
     inkscape:pagecheckerboard="0"
     showgrid="false"
     inkscape:zoom="16"
     inkscape:cx="6.875"
     inkscape:cy="17.40625"
     inkscape:window-width="1920"
     inkscape:window-height="991"
     inkscape:window-x="-9"
     inkscape:window-y="-9"
     inkscape:window-maximized="1"
     inkscape:current-layer="svg6" />
</svg>
