<?xml version="1.0" encoding="UTF-8" standalone="no"?>
<svg
   height="32"
   width="32"
   version="1.1"
   id="svg4"
   sodipodi:docname="palette.svg"
   inkscape:version="1.1 (c68e22c387, 2021-05-23)"
   xmlns:inkscape="http://www.inkscape.org/namespaces/inkscape"
   xmlns:sodipodi="http://sodipodi.sourceforge.net/DTD/sodipodi-0.dtd"
   xmlns="http://www.w3.org/2000/svg"
   xmlns:svg="http://www.w3.org/2000/svg">
  <defs
     id="defs8" />
  <sodipodi:namedview
     id="namedview6"
     pagecolor="#505050"
     bordercolor="#eeeeee"
     borderopacity="1"
     inkscape:pageshadow="0"
     inkscape:pageopacity="0"
     inkscape:pagecheckerboard="0"
     showgrid="false"
     inkscape:zoom="10.577139"
     inkscape:cx="8.6980043"
     inkscape:cy="16.592389"
     inkscape:window-width="1920"
     inkscape:window-height="991"
     inkscape:window-x="-9"
     inkscape:window-y="-9"
     inkscape:window-maximized="1"
     inkscape:current-layer="svg4" />
  <path
     d="m 16,30.396912 q -5.001033,0 -8.5623741,-3.466625 -3.5613414,-3.466625 -3.5613414,-8.467657 0,-2.500517 0.9471653,-4.64111 0.9471653,-2.140594 2.6141761,-3.807605 L 16,1.6030879 24.562374,10.013915 q 1.667011,1.667011 2.614176,3.807605 0.947165,2.140593 0.947165,4.64111 0,4.963146 -3.542398,8.448714 Q 21.038919,30.396912 16,30.396912 Z m 0,-2.273197 V 4.7855632 L 8.9530904,11.718813 q -1.363918,1.363918 -2.0837636,3.030929 -0.7198456,1.667011 -0.7198456,3.712888 0,4.053867 2.8983257,6.857476 Q 11.946133,28.123715 16,28.123715 Z"
     id="path2"
     style="fill:#ffffff;fill-opacity:1;stroke-width:0.757732" />
</svg>
