<?xml version="1.0" encoding="UTF-8" standalone="no"?>
<svg
   height="32"
   viewBox="0 0 16 16"
   width="32"
   fill="#ffffff"
   version="1.1"
   id="svg6"
   sodipodi:docname="uparrow.svg"
   inkscape:version="1.1 (c68e22c387, 2021-05-23)"
   xmlns:inkscape="http://www.inkscape.org/namespaces/inkscape"
   xmlns:sodipodi="http://sodipodi.sourceforge.net/DTD/sodipodi-0.dtd"
   xmlns="http://www.w3.org/2000/svg"
   xmlns:svg="http://www.w3.org/2000/svg">
  <defs
     id="defs10" />
  <sodipodi:namedview
     id="namedview8"
     pagecolor="#505050"
     bordercolor="#eeeeee"
     borderopacity="1"
     inkscape:pageshadow="0"
     inkscape:pageopacity="0"
     inkscape:pagecheckerboard="0"
     showgrid="false"
     inkscape:zoom="11.96189"
     inkscape:cx="23.742068"
     inkscape:cy="23.616669"
     inkscape:window-width="1920"
     inkscape:window-height="991"
     inkscape:window-x="-9"
     inkscape:window-y="-9"
     inkscape:window-maximized="1"
     inkscape:current-layer="svg6" />
  <path
     d="M 0,0 H 24 V 24 H 0 Z"
     fill="none"
     id="path2" />
  <path
     d="M 8.8668858,13.916822 V 4.6485671 L 13.118547,8.43671 c 0.358778,0.3196639 0.897379,0.3397844 1.237163,0 0.339785,-0.3397843 0.339785,-0.8886668 0,-1.2284511 L 8.6142256,1.4667742 c -0.3397844,-0.3397843 -0.8886668,-0.3397843 -1.2284512,0 L 1.6442898,7.2082589 c -0.3397844,0.3397843 -0.3397844,0.8886668 0,1.2284511 0.3397844,0.3397844 0.8886668,0.3397844 1.2284512,0 L 7.1244018,4.6485671 v 9.2682549 c 0,0.479183 0.3920589,0.871242 0.871242,0.871242 0.4791831,0 0.871242,-0.392059 0.871242,-0.871242 z"
     id="path4"
     sodipodi:nodetypes="scsssssssscsss"
     style="stroke-width:0.871242" />
</svg>
