<?xml version="1.0" encoding="UTF-8" standalone="no"?>
<svg
   height="32"
   viewBox="0 0 16 16"
   width="32"
   fill="#ffffff"
   version="1.1"
   id="svg6"
   sodipodi:docname="updown.svg"
   inkscape:version="1.1 (c68e22c387, 2021-05-23)"
   xmlns:inkscape="http://www.inkscape.org/namespaces/inkscape"
   xmlns:sodipodi="http://sodipodi.sourceforge.net/DTD/sodipodi-0.dtd"
   xmlns="http://www.w3.org/2000/svg"
   xmlns:svg="http://www.w3.org/2000/svg">
  <g
     id="path4"
     transform="matrix(0.93658789,0,0,0.93658789,0.50726579,0.50700233)"
     style="fill:#ffffff;fill-opacity:1">
    <path
       id="path897"
       style="color:#000000;fill:#ffffff;fill-opacity:1;stroke-width:1.61268;stroke-linejoin:round;-inkscape-stroke:none"
       d="M 16.007812,1 A 0.80642162,0.80642162 0 0 0 15.4375,1.234375 L 8.0351562,8.6367188 a 0.80642162,0.80642162 0 0 0 0.00391,1.1445312 l 2.2890625,2.273438 a 0.80642162,0.80642162 0 0 0 1.136719,-0.0039 l 4.542968,-4.5390622 4.542969,4.5390622 a 0.80642162,0.80642162 0 0 0 1.140625,0 l 2.273438,-2.2734372 a 0.80642162,0.80642162 0 0 0 0,-1.1367188 L 16.578125,1.2382812 A 0.80642162,0.80642162 0 0 0 16.007812,1 Z"
       transform="scale(0.5)" />
  </g>
  <g
     id="path937"
     transform="matrix(0.93658789,0,0,0.93658789,0.50726579,0.50700233)"
     style="fill:#ffffff;fill-opacity:1">
    <path
       id="path906"
       style="color:#000000;fill:#ffffff;fill-opacity:1;stroke-width:0.806338;stroke-linejoin:round;-inkscape-stroke:none"
       d="m 10.878906,20.5 a 0.40320932,0.40320932 0 0 0 -0.285156,0.117188 l -2.2734375,2.273437 a 0.40320932,0.40320932 0 0 0 0,0.570313 l 7.3867185,7.402343 a 0.40320932,0.40320932 0 0 0 0.570313,0 l 7.402344,-7.402343 a 0.40320932,0.40320932 0 0 0 0,-0.570313 l -2.292969,-2.277344 a 0.40320932,0.40320932 0 0 0 -0.566407,0.0039 l -4.828124,4.824218 -4.828126,-4.824218 A 0.40320932,0.40320932 0 0 0 10.878906,20.5 Z"
       transform="scale(0.5)" />
  </g>
  <defs
     id="defs10" />
  <sodipodi:namedview
     id="namedview8"
     pagecolor="#505050"
     bordercolor="#eeeeee"
     borderopacity="1"
     inkscape:pageshadow="0"
     inkscape:pageopacity="0"
     inkscape:pagecheckerboard="0"
     showgrid="false"
     inkscape:zoom="21.154278"
     inkscape:cx="10.919777"
     inkscape:cy="14.63061"
     inkscape:window-width="1920"
     inkscape:window-height="991"
     inkscape:window-x="-9"
     inkscape:window-y="-9"
     inkscape:window-maximized="1"
     inkscape:current-layer="svg6"
     units="in" />
</svg>
