<?xml version="1.0" encoding="UTF-8" standalone="no"?>
<svg
   height="32"
   viewBox="0 0 16 16"
   width="32"
   fill="#ffffff"
   version="1.1"
   id="svg6"
   sodipodi:docname="visibility.svg"
   inkscape:version="1.1 (c68e22c387, 2021-05-23)"
   xmlns:inkscape="http://www.inkscape.org/namespaces/inkscape"
   xmlns:sodipodi="http://sodipodi.sourceforge.net/DTD/sodipodi-0.dtd"
   xmlns="http://www.w3.org/2000/svg"
   xmlns:svg="http://www.w3.org/2000/svg">
  <defs
     id="defs10" />
  <sodipodi:namedview
     id="namedview8"
     pagecolor="#505050"
     bordercolor="#eeeeee"
     borderopacity="1"
     inkscape:pageshadow="0"
     inkscape:pageopacity="0"
     inkscape:pagecheckerboard="0"
     showgrid="false"
     inkscape:zoom="5.2885695"
     inkscape:cx="-16.450573"
     inkscape:cy="3.8762845"
     inkscape:window-width="1920"
     inkscape:window-height="991"
     inkscape:window-x="-9"
     inkscape:window-y="-9"
     inkscape:window-maximized="1"
     inkscape:current-layer="svg6" />
  <path
     d="M 0,0 H 24 V 24 H 0 Z"
     fill="none"
     id="path2" />
  <path
     d="M 0.88258721,8.0000004 C 2.8563924,15.366342 13.049902,15.716056 15.117413,8.0000005 13.11185,0.51513737 2.8333487,0.71965928 0.88258721,8.0000004 Z M 7.9999998,11.235188 c -1.7858235,0 -3.2351875,-1.4493641 -3.2351875,-3.2351875 0,-1.7858237 1.449364,-3.2351877 3.2351875,-3.2351877 1.7858235,0 3.2351882,1.449364 3.2351882,3.2351877 0,1.7858233 -1.4493647,3.2351875 -3.2351882,3.2351875 z"
     id="path4"
     style="stroke-width:0.647038"
     sodipodi:nodetypes="cccsssss" />
  <path
     d="m 8,6.0588874 c -1.0740825,0 -1.9411125,0.86703 -1.9411125,1.9411125 0,1.0740825 0.86703,1.9411127 1.9411125,1.9411127 1.0740825,0 1.9411125,-0.8670302 1.9411125,-1.9411127 C 9.9411125,6.9259174 9.0740825,6.0588874 8,6.0588874 Z"
     style="stroke-width:0.323519"
     id="path1075" />
</svg>
