# Blender 3.4.1
# www.blender.org
mtllib Racine1.mtl
o Tronc.003
v 7.391261 0.097927 0.171215
v 7.103944 0.097927 0.125617
v 7.385074 0.090473 0.210202
v 7.097757 0.090473 0.164604
v 7.379828 0.069245 0.243253
v 7.092512 0.069245 0.197655
v 7.376324 0.037475 0.265337
v 7.089006 0.037475 0.219740
v 7.375093 0.000000 0.273092
v 7.087776 -0.000000 0.227495
v 7.407429 0.000000 0.069338
v 7.120112 -0.000000 0.023740
v 7.406199 0.037475 0.077093
v 7.118881 0.037475 0.031495
v 7.402693 0.069245 0.099177
v 7.115376 0.069245 0.053579
v 7.397448 0.090473 0.132228
v 7.110131 0.090473 0.086631
v 7.406199 0.037475 0.077093
v 7.118881 0.037475 0.031495
v 7.402693 0.069245 0.099177
v 7.115376 0.069245 0.053579
v 6.903270 0.090473 0.128299
v 6.888978 0.097927 0.091502
v 6.915385 0.069245 0.159494
v 6.923481 0.037475 0.180337
v 6.926323 -0.000000 0.187657
v 6.854475 0.037475 0.002667
v 6.851633 -0.000000 -0.004652
v 6.862571 0.069245 0.023511
v 6.874687 0.090473 0.054705
v 6.537792 0.090473 0.264629
v 6.543710 0.097927 0.225600
v 6.532775 0.069245 0.297716
v 6.529424 0.037475 0.319824
v 6.528246 -0.000000 0.327587
v 6.557997 0.037475 0.131377
v 6.559174 -0.000000 0.123614
v 6.554645 0.069245 0.153485
v 6.549628 0.090473 0.186572
v 6.258177 0.090473 0.222232
v 6.264095 0.097927 0.183203
v 6.253160 0.069245 0.255319
v 6.249808 0.037475 0.277427
v 6.248631 -0.000000 0.285190
v 6.278382 0.037475 0.088980
v 6.279559 -0.000000 0.081217
v 6.275030 0.069245 0.111088
v 6.270013 0.090473 0.144175
v 5.911074 0.074960 0.152288
v 5.914425 0.079182 0.130184
v 5.908233 0.062938 0.171026
v 5.906334 0.044946 0.183547
v 5.905668 0.023722 0.187943
v 5.922517 0.044946 0.076822
v 5.923183 0.023722 0.072425
v 5.920618 0.062938 0.089343
v 5.917777 0.074960 0.108081
v 5.610326 0.060526 0.090576
v 5.611289 0.061740 0.084222
v 5.609509 0.057070 0.095964
v 5.608963 0.051897 0.099563
v 5.608771 0.045795 0.100827
v 5.613616 0.051897 0.068880
v 5.613807 0.045795 0.067616
v 5.613070 0.057070 0.072480
v 5.612253 0.060526 0.077867
v 6.203885 0.068344 0.243277
v 6.154610 0.067443 0.231235
v 6.105334 0.066542 0.219193
v 6.056059 0.065641 0.207152
v 6.006783 0.064740 0.195110
v 5.957508 0.063839 0.183068
v 5.955402 0.043878 0.196958
v 6.004470 0.042811 0.210370
v 6.053538 0.041744 0.223781
v 6.102605 0.040677 0.237192
v 6.151673 0.039610 0.250604
v 6.200741 0.038542 0.264015
v 6.224400 0.068344 0.107982
v 6.173769 0.067443 0.104875
v 6.123139 0.066542 0.101769
v 6.072509 0.065641 0.098662
v 6.021879 0.064740 0.095556
v 5.971248 0.063839 0.092449
v 5.968096 0.077176 0.113237
v 6.018415 0.079393 0.118394
v 6.068735 0.081609 0.123550
v 6.119055 0.083825 0.128706
v 6.169374 0.086041 0.133862
v 6.219693 0.088257 0.139019
v 5.954662 0.020333 0.201836
v 6.003657 0.016944 0.215728
v 6.052652 0.013555 0.229620
v 6.101647 0.010166 0.243513
v 6.150642 0.006778 0.257405
v 6.199636 0.003389 0.271298
v 6.214142 0.095249 0.175629
v 6.164189 0.092571 0.168055
v 6.114237 0.089894 0.160481
v 6.064284 0.087216 0.152907
v 6.014331 0.084538 0.145333
v 5.964378 0.081860 0.137759
v 5.960660 0.077176 0.162280
v 6.010246 0.079393 0.172272
v 6.059833 0.081609 0.182264
v 6.109419 0.083825 0.192256
v 6.159005 0.086041 0.202248
v 6.208591 0.088257 0.212240
v 6.228648 0.003389 0.079961
v 6.177737 0.006778 0.078705
v 6.126826 0.010166 0.077449
v 6.075916 0.013555 0.076193
v 6.025005 0.016944 0.074937
v 5.974094 0.020333 0.073681
v 5.973354 0.043878 0.078559
v 6.024192 0.042811 0.080296
v 6.075030 0.041744 0.082033
v 6.125868 0.040677 0.083770
v 6.176706 0.039610 0.085507
v 6.227544 0.038542 0.087243
v 6.494472 0.037475 0.314524
v 6.459520 0.037475 0.309224
v 6.424568 0.037475 0.303925
v 6.389616 0.037475 0.298625
v 6.354664 0.037475 0.293326
v 6.319712 0.037475 0.288026
v 6.284760 0.037475 0.282726
v 6.283583 -0.000000 0.290490
v 6.318535 -0.000000 0.295789
v 6.353487 -0.000000 0.301089
v 6.388439 -0.000000 0.306388
v 6.423391 -0.000000 0.311688
v 6.458343 -0.000000 0.316988
v 6.493295 -0.000000 0.322287
v 6.508758 0.097927 0.220301
v 6.473806 0.097927 0.215001
v 6.438855 0.097927 0.209702
v 6.403903 0.097927 0.204402
v 6.368951 0.097927 0.199102
v 6.333999 0.097927 0.193803
v 6.299047 0.097927 0.188503
v 6.293129 0.090473 0.227532
v 6.328081 0.090473 0.232831
v 6.363033 0.090473 0.238131
v 6.397985 0.090473 0.243430
v 6.432937 0.090473 0.248730
v 6.467889 0.090473 0.254030
v 6.502841 0.090473 0.259329
v 6.514676 0.090473 0.181272
v 6.479724 0.090473 0.175973
v 6.444772 0.090473 0.170673
v 6.409821 0.090473 0.165373
v 6.374868 0.090473 0.160074
v 6.339917 0.090473 0.154774
v 6.304965 0.090473 0.149475
v 6.524222 -0.000000 0.118314
v 6.489270 -0.000000 0.113015
v 6.454318 -0.000000 0.107715
v 6.419366 -0.000000 0.102415
v 6.384415 -0.000000 0.097116
v 6.349463 -0.000000 0.091816
v 6.314511 -0.000000 0.086517
v 6.313334 0.037475 0.094280
v 6.348286 0.037475 0.099580
v 6.383238 0.037475 0.104879
v 6.418190 0.037475 0.110179
v 6.453141 0.037475 0.115478
v 6.488093 0.037475 0.120778
v 6.523045 0.037475 0.126078
v 6.288113 0.069245 0.260618
v 6.323064 0.069245 0.265918
v 6.358016 0.069245 0.271218
v 6.392968 0.069245 0.276517
v 6.427920 0.069245 0.281817
v 6.462872 0.069245 0.287117
v 6.497824 0.069245 0.292416
v 6.309982 0.069245 0.116388
v 6.344934 0.069245 0.121687
v 6.379885 0.069245 0.126987
v 6.414837 0.069245 0.132287
v 6.449789 0.069245 0.137586
v 6.484741 0.069245 0.142886
v 6.519693 0.069245 0.148185
vn -0.0291 0.9826 0.1833
vn -0.0840 0.8444 0.5290
vn -0.1282 0.5756 0.8077
vn -0.1534 0.2051 0.9666
vn 0.1534 0.2051 -0.9666
vn 0.1282 0.5756 -0.8077
vn 0.0840 0.8444 -0.5290
vn 0.0291 0.9826 -0.1833
vn -0.2314 0.1870 0.9547
vn 0.9876 -0.0000 0.1567
vn -0.0000 -1.0000 -0.0000
vn -0.3927 0.1898 -0.8999
vn -0.0338 0.9799 0.1964
vn 0.0943 0.5526 -0.8281
vn -0.1857 0.5408 0.8204
vn 0.1047 0.1939 -0.9754
vn -0.1114 0.8236 0.5562
vn 0.0287 0.9802 -0.1959
vn 0.0705 0.8287 -0.5552
vn -0.1467 0.2051 0.9677
vn 0.1930 0.8284 0.5258
vn -0.3298 0.5455 -0.7705
vn 0.2808 0.5518 0.7853
vn -0.2157 0.8256 -0.5214
vn 0.3264 0.1934 0.9252
vn 0.0704 0.9802 0.1850
vn -0.0732 0.9801 -0.1846
vn -0.2043 0.5736 0.7933
vn -0.0278 0.9826 0.1835
vn 0.0278 0.9826 -0.1835
vn 0.1467 0.2051 -0.9677
vn -0.0803 0.8444 0.5296
vn 0.1226 0.5756 -0.8085
vn -0.1226 0.5756 0.8085
vn 0.0803 0.8444 -0.5296
vn -0.1468 0.8425 0.5183
vn 0.0180 0.8428 -0.5380
vn -0.2540 0.2038 0.9455
vn -0.0792 0.9813 0.1754
vn -0.0236 0.9813 -0.1910
vn 0.0377 0.2038 -0.9783
vn -0.1423 0.8428 0.5191
vn -0.0662 -0.9978 -0.0100
vn 0.0400 0.5736 -0.8182
vn -0.9887 -0.0000 -0.1499
vn -0.0710 -0.9974 -0.0108
vn 0.0339 0.5733 -0.8187
vn -0.2103 0.5733 0.7919
vn 0.0135 0.8425 -0.5385
vn -0.2617 0.2037 0.9434
vn -0.0830 0.9811 0.1748
vn -0.0274 0.9811 -0.1915
vn 0.0297 0.2037 -0.9786
vt 1.000000 0.500000
vt 0.000000 0.500000
vt 0.750000 0.490000
vt 1.000000 1.000000
vt 0.000000 1.000000
vt 0.937500 0.500000
vt 0.841844 0.471731
vt 0.937500 1.000000
vt 0.875000 0.500000
vt 0.919706 0.419706
vt 0.875000 1.000000
vt 0.812500 0.500000
vt 0.971731 0.341844
vt 0.812500 1.000000
vt 0.750000 0.500000
vt 0.990000 0.250000
vt 0.750000 1.000000
vt 0.490000 0.250000
vt 0.250000 0.500000
vt 0.510000 0.250000
vt 0.250000 1.000000
vt 0.187500 0.500000
vt 0.528269 0.341844
vt 0.187500 1.000000
vt 0.125000 0.500000
vt 0.580294 0.419706
vt 0.125000 1.000000
vt 0.062500 0.500000
vt 0.658156 0.471731
vt 0.062500 1.000000
vt 0.187500 0.500000
vt 0.187500 1.000000
vt 0.125000 0.500000
vt 0.125000 1.000000
vt 0.937500 1.000000
vt 1.000000 1.000000
vt 0.000000 1.000000
vt 0.875000 1.000000
vt 0.812500 1.000000
vt 0.490000 0.250000
vt 0.750000 1.000000
vt 0.187500 1.000000
vt 0.250000 1.000000
vt 0.125000 1.000000
vt 0.062500 1.000000
vt 0.937500 1.000000
vt 0.000000 1.000000
vt 1.000000 1.000000
vt 0.875000 1.000000
vt 0.812500 1.000000
vt 0.490000 0.250000
vt 0.750000 1.000000
vt 0.187500 1.000000
vt 0.250000 1.000000
vt 0.125000 1.000000
vt 0.062500 1.000000
vt 0.937500 1.000000
vt 0.000000 1.000000
vt 1.000000 1.000000
vt 0.875000 1.000000
vt 0.812500 1.000000
vt 0.490000 0.250000
vt 0.750000 1.000000
vt 0.187500 1.000000
vt 0.250000 1.000000
vt 0.125000 1.000000
vt 0.062500 1.000000
vt 0.937500 1.000000
vt 1.000000 1.000000
vt 0.000000 1.000000
vt 0.875000 1.000000
vt 0.812500 1.000000
vt 0.490000 0.250000
vt 0.750000 1.000000
vt 0.187500 1.000000
vt 0.250000 1.000000
vt 0.125000 1.000000
vt 0.062500 1.000000
vt 0.341844 0.471731
vt 0.937500 1.000000
vt 0.250000 0.490000
vt 1.000000 1.000000
vt 0.000000 1.000000
vt 0.419706 0.419706
vt 0.875000 1.000000
vt 0.471731 0.341844
vt 0.812500 1.000000
vt 0.490000 0.250000
vt 0.750000 1.000000
vt 0.028269 0.341844
vt 0.187500 1.000000
vt 0.010000 0.250000
vt 0.250000 1.000000
vt 0.080294 0.419706
vt 0.125000 1.000000
vt 0.158156 0.471731
vt 0.062500 1.000000
vt 0.875000 1.000000
vt 0.875000 1.000000
vt 0.875000 1.000000
vt 0.875000 1.000000
vt 0.875000 1.000000
vt 0.875000 1.000000
vt 0.812500 1.000000
vt 0.812500 1.000000
vt 0.812500 1.000000
vt 0.812500 1.000000
vt 0.812500 1.000000
vt 0.812500 1.000000
vt 0.125000 1.000000
vt 0.125000 1.000000
vt 0.125000 1.000000
vt 0.125000 1.000000
vt 0.125000 1.000000
vt 0.125000 1.000000
vt 0.062500 1.000000
vt 0.062500 1.000000
vt 0.062500 1.000000
vt 0.062500 1.000000
vt 0.062500 1.000000
vt 0.062500 1.000000
vt 0.490000 0.250000
vt 0.750000 1.000000
vt 0.490000 0.250000
vt 0.750000 1.000000
vt 0.490000 0.250000
vt 0.750000 1.000000
vt 0.490000 0.250000
vt 0.750000 1.000000
vt 0.490000 0.250000
vt 0.750000 1.000000
vt 0.490000 0.250000
vt 0.750000 1.000000
vt 0.000000 1.000000
vt 1.000000 1.000000
vt 0.000000 1.000000
vt 1.000000 1.000000
vt 0.000000 1.000000
vt 1.000000 1.000000
vt 0.000000 1.000000
vt 1.000000 1.000000
vt 0.000000 1.000000
vt 1.000000 1.000000
vt 0.000000 1.000000
vt 1.000000 1.000000
vt 0.937500 1.000000
vt 0.937500 1.000000
vt 0.937500 1.000000
vt 0.937500 1.000000
vt 0.937500 1.000000
vt 0.937500 1.000000
vt 0.250000 1.000000
vt 0.250000 1.000000
vt 0.250000 1.000000
vt 0.250000 1.000000
vt 0.250000 1.000000
vt 0.250000 1.000000
vt 0.187500 1.000000
vt 0.187500 1.000000
vt 0.187500 1.000000
vt 0.187500 1.000000
vt 0.187500 1.000000
vt 0.187500 1.000000
vt 0.812500 1.000000
vt 0.812500 1.000000
vt 0.812500 1.000000
vt 0.812500 1.000000
vt 0.812500 1.000000
vt 0.812500 1.000000
vt 0.812500 1.000000
vt 0.490000 0.250000
vt 0.750000 1.000000
vt 0.490000 0.250000
vt 0.750000 1.000000
vt 0.490000 0.250000
vt 0.750000 1.000000
vt 0.490000 0.250000
vt 0.750000 1.000000
vt 0.490000 0.250000
vt 0.750000 1.000000
vt 0.490000 0.250000
vt 0.750000 1.000000
vt 0.490000 0.250000
vt 0.750000 1.000000
vt 0.000000 1.000000
vt 1.000000 1.000000
vt 0.000000 1.000000
vt 1.000000 1.000000
vt 0.000000 1.000000
vt 1.000000 1.000000
vt 0.000000 1.000000
vt 1.000000 1.000000
vt 0.000000 1.000000
vt 1.000000 1.000000
vt 0.000000 1.000000
vt 1.000000 1.000000
vt 0.000000 1.000000
vt 1.000000 1.000000
vt 0.937500 1.000000
vt 0.937500 1.000000
vt 0.937500 1.000000
vt 0.937500 1.000000
vt 0.937500 1.000000
vt 0.937500 1.000000
vt 0.937500 1.000000
vt 0.062500 1.000000
vt 0.062500 1.000000
vt 0.062500 1.000000
vt 0.062500 1.000000
vt 0.062500 1.000000
vt 0.062500 1.000000
vt 0.062500 1.000000
vt 0.250000 1.000000
vt 0.250000 1.000000
vt 0.250000 1.000000
vt 0.250000 1.000000
vt 0.250000 1.000000
vt 0.250000 1.000000
vt 0.250000 1.000000
vt 0.187500 1.000000
vt 0.187500 1.000000
vt 0.187500 1.000000
vt 0.187500 1.000000
vt 0.187500 1.000000
vt 0.187500 1.000000
vt 0.187500 1.000000
vt 0.875000 1.000000
vt 0.875000 1.000000
vt 0.875000 1.000000
vt 0.875000 1.000000
vt 0.875000 1.000000
vt 0.875000 1.000000
vt 0.875000 1.000000
vt 0.125000 1.000000
vt 0.125000 1.000000
vt 0.125000 1.000000
vt 0.125000 1.000000
vt 0.125000 1.000000
vt 0.125000 1.000000
vt 0.125000 1.000000
s 0
usemtl Material.001
f 1/1/1 2/4/1 4/8/1 3/6/1
f 3/6/2 4/8/2 6/11/2 5/9/2
f 5/9/3 6/11/3 8/14/3 7/12/3
f 7/12/4 8/14/4 10/17/4 9/15/4
f 11/19/5 12/21/5 14/24/5 13/22/5
f 13/22/6 14/24/6 16/27/6 15/25/6
f 15/25/7 16/27/7 18/30/7 17/28/7
f 17/28/8 18/30/8 2/5/8 1/2/8
f 10/17/9 8/14/9 26/39/9 27/41/9
f 1/3/10 3/7/10 5/10/10 7/13/10 9/16/10 11/20/10 13/23/10 15/26/10 17/29/10
f 9/16/11 10/18/11 12/21/11 11/20/11
f 19/31/6 20/32/6 22/34/6 21/33/6
f 28/42/12 29/43/12 38/54/12 37/53/12
f 4/8/13 2/4/13 24/36/13 23/35/13
f 16/27/14 14/24/14 28/42/14 30/44/14
f 8/14/15 6/11/15 25/38/15 26/39/15
f 12/21/11 10/18/11 27/40/11 29/43/11
f 14/24/16 12/21/16 29/43/16 28/42/16
f 6/11/17 4/8/17 23/35/17 25/38/17
f 2/5/18 18/30/18 31/45/18 24/37/18
f 18/30/19 16/27/19 30/44/19 31/45/19
f 129/172/20 128/170/20 44/61/20 45/63/20
f 25/38/21 23/35/21 32/46/21 34/49/21
f 29/43/11 27/40/11 36/51/11 38/54/11
f 30/44/22 28/42/22 37/53/22 39/55/22
f 26/39/23 25/38/23 34/49/23 35/50/23
f 31/45/24 30/44/24 39/55/24 40/56/24
f 27/41/25 26/39/25 35/50/25 36/52/25
f 23/35/26 24/36/26 33/48/26 32/46/26
f 24/37/27 31/45/27 40/56/27 33/47/27
f 74/104/28 73/103/28 52/71/28 53/72/28
f 143/199/29 142/198/29 42/59/29 41/57/29
f 142/197/30 156/212/30 49/67/30 42/58/30
f 164/220/31 163/219/31 47/65/31 46/64/31
f 171/227/32 143/199/32 41/57/32 43/60/32
f 163/219/11 129/171/11 45/62/11 47/65/11
f 178/234/33 164/220/33 46/64/33 48/66/33
f 128/170/34 171/227/34 43/60/34 44/61/34
f 156/212/35 178/234/35 48/66/35 49/67/35
f 52/71/36 50/68/36 59/80/36 61/85/36
f 86/116/37 85/115/37 57/77/37 58/78/37
f 92/123/38 74/104/38 53/72/38 54/74/38
f 104/146/39 103/145/39 51/69/39 50/68/39
f 103/144/40 86/116/40 58/78/40 51/70/40
f 116/158/41 115/157/41 56/76/41 55/75/41
f 73/103/42 104/146/42 50/68/42 52/71/42
f 115/157/43 92/122/43 54/73/43 56/76/43
f 85/115/44 116/158/44 55/75/44 57/77/44
f 59/79/45 60/81/45 67/96/45 66/94/45 64/90/45 65/92/45 63/88/45 62/86/45 61/84/45
f 56/76/46 54/73/46 63/88/46 65/93/46
f 57/77/47 55/75/47 64/91/47 66/95/47
f 53/72/48 52/71/48 61/85/48 62/87/48
f 58/78/49 57/77/49 66/95/49 67/97/49
f 54/74/50 53/72/50 62/87/50 63/89/50
f 50/68/51 51/69/51 60/82/51 59/80/51
f 51/70/52 58/78/52 67/97/52 60/83/52
f 55/75/53 56/76/53 65/93/53 64/91/53
f 48/66/44 46/64/44 121/163/44 80/110/44
f 80/110/44 121/163/44 120/162/44 81/111/44
f 81/111/44 120/162/44 119/161/44 82/112/44
f 82/112/44 119/161/44 118/160/44 83/113/44
f 83/113/44 118/160/44 117/159/44 84/114/44
f 84/114/44 117/159/44 116/158/44 85/115/44
f 47/65/43 45/62/43 97/132/43 110/152/43
f 110/152/43 97/132/43 96/130/43 111/153/43
f 111/153/43 96/130/43 95/128/43 112/154/43
f 112/154/43 95/128/43 94/126/43 113/155/43
f 113/155/43 94/126/43 93/124/43 114/156/43
f 114/156/43 93/124/43 92/122/43 115/157/43
f 43/60/42 41/57/42 109/151/42 68/98/42
f 68/98/42 109/151/42 108/150/42 69/99/42
f 69/99/42 108/150/42 107/149/42 70/100/42
f 70/100/42 107/149/42 106/148/42 71/101/42
f 71/101/42 106/148/42 105/147/42 72/102/42
f 72/102/42 105/147/42 104/146/42 73/103/42
f 46/64/41 47/65/41 110/152/41 121/163/41
f 121/163/41 110/152/41 111/153/41 120/162/41
f 120/162/41 111/153/41 112/154/41 119/161/41
f 119/161/41 112/154/41 113/155/41 118/160/41
f 118/160/41 113/155/41 114/156/41 117/159/41
f 117/159/41 114/156/41 115/157/41 116/158/41
f 42/58/40 49/67/40 91/121/40 98/134/40
f 98/134/40 91/121/40 90/120/40 99/136/40
f 99/136/40 90/120/40 89/119/40 100/138/40
f 100/138/40 89/119/40 88/118/40 101/140/40
f 101/140/40 88/118/40 87/117/40 102/142/40
f 102/142/40 87/117/40 86/116/40 103/144/40
f 41/57/39 42/59/39 98/135/39 109/151/39
f 109/151/39 98/135/39 99/137/39 108/150/39
f 108/150/39 99/137/39 100/139/39 107/149/39
f 107/149/39 100/139/39 101/141/39 106/148/39
f 106/148/39 101/141/39 102/143/39 105/147/39
f 105/147/39 102/143/39 103/145/39 104/146/39
f 45/63/38 44/61/38 79/109/38 97/133/38
f 97/133/38 79/109/38 78/108/38 96/131/38
f 96/131/38 78/108/38 77/107/38 95/129/38
f 95/129/38 77/107/38 76/106/38 94/127/38
f 94/127/38 76/106/38 75/105/38 93/125/38
f 93/125/38 75/105/38 74/104/38 92/123/38
f 49/67/37 48/66/37 80/110/37 91/121/37
f 91/121/37 80/110/37 81/111/37 90/120/37
f 90/120/37 81/111/37 82/112/37 89/119/37
f 89/119/37 82/112/37 83/113/37 88/118/37
f 88/118/37 83/113/37 84/114/37 87/117/37
f 87/117/37 84/114/37 85/115/37 86/116/37
f 44/61/28 43/60/28 68/98/28 79/109/28
f 79/109/28 68/98/28 69/99/28 78/108/28
f 78/108/28 69/99/28 70/100/28 77/107/28
f 77/107/28 70/100/28 71/101/28 76/106/28
f 76/106/28 71/101/28 72/102/28 75/105/28
f 75/105/28 72/102/28 73/103/28 74/104/28
f 40/56/35 39/55/35 184/240/35 150/206/35
f 150/206/35 184/240/35 183/239/35 151/207/35
f 151/207/35 183/239/35 182/238/35 152/208/35
f 152/208/35 182/238/35 181/237/35 153/209/35
f 153/209/35 181/237/35 180/236/35 154/210/35
f 154/210/35 180/236/35 179/235/35 155/211/35
f 155/211/35 179/235/35 178/234/35 156/212/35
f 35/50/34 34/49/34 177/233/34 122/164/34
f 122/164/34 177/233/34 176/232/34 123/165/34
f 123/165/34 176/232/34 175/231/34 124/166/34
f 124/166/34 175/231/34 174/230/34 125/167/34
f 125/167/34 174/230/34 173/229/34 126/168/34
f 126/168/34 173/229/34 172/228/34 127/169/34
f 127/169/34 172/228/34 171/227/34 128/170/34
f 39/55/33 37/53/33 170/226/33 184/240/33
f 184/240/33 170/226/33 169/225/33 183/239/33
f 183/239/33 169/225/33 168/224/33 182/238/33
f 182/238/33 168/224/33 167/223/33 181/237/33
f 181/237/33 167/223/33 166/222/33 180/236/33
f 180/236/33 166/222/33 165/221/33 179/235/33
f 179/235/33 165/221/33 164/220/33 178/234/33
f 38/54/11 36/51/11 135/183/11 157/213/11
f 157/213/11 135/183/11 134/181/11 158/214/11
f 158/214/11 134/181/11 133/179/11 159/215/11
f 159/215/11 133/179/11 132/177/11 160/216/11
f 160/216/11 132/177/11 131/175/11 161/217/11
f 161/217/11 131/175/11 130/173/11 162/218/11
f 162/218/11 130/173/11 129/171/11 163/219/11
f 34/49/32 32/46/32 149/205/32 177/233/32
f 177/233/32 149/205/32 148/204/32 176/232/32
f 176/232/32 148/204/32 147/203/32 175/231/32
f 175/231/32 147/203/32 146/202/32 174/230/32
f 174/230/32 146/202/32 145/201/32 173/229/32
f 173/229/32 145/201/32 144/200/32 172/228/32
f 172/228/32 144/200/32 143/199/32 171/227/32
f 37/53/31 38/54/31 157/213/31 170/226/31
f 170/226/31 157/213/31 158/214/31 169/225/31
f 169/225/31 158/214/31 159/215/31 168/224/31
f 168/224/31 159/215/31 160/216/31 167/223/31
f 167/223/31 160/216/31 161/217/31 166/222/31
f 166/222/31 161/217/31 162/218/31 165/221/31
f 165/221/31 162/218/31 163/219/31 164/220/31
f 33/47/30 40/56/30 150/206/30 136/185/30
f 136/185/30 150/206/30 151/207/30 137/187/30
f 137/187/30 151/207/30 152/208/30 138/189/30
f 138/189/30 152/208/30 153/209/30 139/191/30
f 139/191/30 153/209/30 154/210/30 140/193/30
f 140/193/30 154/210/30 155/211/30 141/195/30
f 141/195/30 155/211/30 156/212/30 142/197/30
f 32/46/29 33/48/29 136/186/29 149/205/29
f 149/205/29 136/186/29 137/188/29 148/204/29
f 148/204/29 137/188/29 138/190/29 147/203/29
f 147/203/29 138/190/29 139/192/29 146/202/29
f 146/202/29 139/192/29 140/194/29 145/201/29
f 145/201/29 140/194/29 141/196/29 144/200/29
f 144/200/29 141/196/29 142/198/29 143/199/29
f 36/52/20 35/50/20 122/164/20 135/184/20
f 135/184/20 122/164/20 123/165/20 134/182/20
f 134/182/20 123/165/20 124/166/20 133/180/20
f 133/180/20 124/166/20 125/167/20 132/178/20
f 132/178/20 125/167/20 126/168/20 131/176/20
f 131/176/20 126/168/20 127/169/20 130/174/20
f 130/174/20 127/169/20 128/170/20 129/172/20
