# Blender 3.4.1
# www.blender.org
mtllib Tronc.mtl
o Tronc
v 0.000000 1.000000 -2.000000
v 0.000000 1.000000 2.000000
v 0.382683 0.923880 -2.000000
v 0.382683 0.923879 2.000000
v 0.707107 0.707107 -2.000000
v 0.707107 0.707107 2.000000
v 0.923880 0.382684 -2.000000
v 0.923880 0.382683 2.000000
v 1.000000 0.000000 -2.000000
v 1.000000 -0.000000 2.000000
v -1.000000 0.000000 -2.000000
v -1.000000 -0.000000 2.000000
v -0.923880 0.382684 -2.000000
v -0.923880 0.382683 2.000000
v -0.707107 0.707107 -2.000000
v -0.707107 0.707107 2.000000
v -0.382683 0.923880 -2.000000
v -0.382683 0.923879 2.000000
vn 0.1951 0.9808 -0.0000
vn 0.5556 0.8315 -0.0000
vn 0.8315 0.5556 -0.0000
vn 0.9808 0.1951 -0.0000
vn -0.9808 0.1951 -0.0000
vn -0.8315 0.5556 -0.0000
vn -0.5556 0.8315 -0.0000
vn -0.1951 0.9808 -0.0000
vn -0.0000 -0.0000 1.0000
vn -0.0000 -0.0000 -1.0000
vn -0.0000 -1.0000 -0.0000
vt 1.000000 0.500000
vt 0.000000 0.500000
vt 0.750000 0.490000
vt 1.000000 1.000000
vt 0.000000 1.000000
vt 0.250000 0.490000
vt 0.937500 0.500000
vt 0.841844 0.471731
vt 0.937500 1.000000
vt 0.341844 0.471731
vt 0.875000 0.500000
vt 0.919706 0.419706
vt 0.875000 1.000000
vt 0.419706 0.419706
vt 0.812500 0.500000
vt 0.971731 0.341844
vt 0.812500 1.000000
vt 0.471731 0.341844
vt 0.750000 0.500000
vt 0.990000 0.250000
vt 0.750000 1.000000
vt 0.490000 0.250000
vt 0.250000 0.500000
vt 0.510000 0.250000
vt 0.010000 0.250000
vt 0.250000 1.000000
vt 0.187500 0.500000
vt 0.528269 0.341844
vt 0.187500 1.000000
vt 0.028269 0.341844
vt 0.125000 0.500000
vt 0.580294 0.419706
vt 0.125000 1.000000
vt 0.080294 0.419706
vt 0.062500 0.500000
vt 0.658156 0.471731
vt 0.062500 1.000000
vt 0.158156 0.471731
s 0
usemtl Material.001
f 1/1/1 2/4/1 4/9/1 3/7/1
f 3/7/2 4/9/2 6/13/2 5/11/2
f 5/11/3 6/13/3 8/17/3 7/15/3
f 7/15/4 8/17/4 10/21/4 9/19/4
f 11/23/5 12/26/5 14/29/5 13/27/5
f 13/27/6 14/29/6 16/33/6 15/31/6
f 15/31/7 16/33/7 18/37/7 17/35/7
f 17/35/8 18/37/8 2/5/8 1/2/8
f 4/10/9 2/6/9 18/38/9 16/34/9 14/30/9 12/25/9 10/22/9 8/18/9 6/14/9
f 1/3/10 3/8/10 5/12/10 7/16/10 9/20/10 11/24/10 13/28/10 15/32/10 17/36/10
f 9/20/11 10/22/11 12/26/11 11/24/11
