<?xml version="1.0" encoding="UTF-8" standalone="no"?>
<!-- Created with Inkscape (http://www.inkscape.org/) -->

<svg
   version="1.1"
   id="svg824"
   width="64"
   height="64"
   viewBox="0 0 64 64"
   sodipodi:docname="focusleaf.svg"
   inkscape:version="1.1 (c68e22c387, 2021-05-23)"
   xmlns:inkscape="http://www.inkscape.org/namespaces/inkscape"
   xmlns:sodipodi="http://sodipodi.sourceforge.net/DTD/sodipodi-0.dtd"
   xmlns="http://www.w3.org/2000/svg"
   xmlns:svg="http://www.w3.org/2000/svg">
  <defs
     id="defs828" />
  <sodipodi:namedview
     id="namedview826"
     pagecolor="#505050"
     bordercolor="#eeeeee"
     borderopacity="1"
     inkscape:pageshadow="0"
     inkscape:pageopacity="0"
     inkscape:pagecheckerboard="0"
     showgrid="false"
     inkscape:zoom="2.8035482"
     inkscape:cx="16.051088"
     inkscape:cy="37.274194"
     inkscape:window-width="1920"
     inkscape:window-height="991"
     inkscape:window-x="-9"
     inkscape:window-y="-9"
     inkscape:window-maximized="1"
     inkscape:current-layer="g830" />
  <g
     inkscape:groupmode="layer"
     inkscape:label="Image"
     id="g830">
    <path
       style="fill:#ffffff;fill-opacity:1;stroke-width:0.251777"
       d="M 15.811481,33.815535 C 4.6481367,33.36996 3.3722521,35.879747 3.3722521,31.954469 c 0,-3.925279 0.8586485,-1.880382 12.4392289,-1.880382 0,-8.025516 7.133165,-13.16392 13.818746,-13.16392 9.665188,0 13.050403,2.560477 22.425909,9.635966 0,0 5.978917,3.958246 8.571609,5.455137 -3.168527,1.618212 -8.571609,5.45514 -8.571609,5.45514 -9.366229,7.068486 -12.294795,9.633423 -21.483719,9.633423 -7.13407,0 -14.426264,-4.739984 -14.760936,-13.274298 z m 21.004843,11.402322 c 3.779621,-1.095289 6.87915,-2.932948 13.805791,-8.185211 2.527744,-1.764249 5.16215,-3.629026 7.739379,-5.03709 -2.722648,-1.61909 -5.521889,-3.355083 -7.739379,-5.025659 -6.926641,-5.252264 -10.072946,-6.762501 -13.852566,-7.857793 -7.970789,-2.309843 -17.278493,1.555036 -19.293126,8.33994 -0.680001,3.46089 0.26258,2.786792 2.819577,2.786792 2.539223,-5.830361 5.884777,-7.444243 9.41002,-8.588114 2.945562,-0.901326 3.101171,-0.51548 0.39392,0.976757 -4.234901,2.334281 -6.362357,4.332696 -6.975161,6.55209 -0.336809,1.219822 -0.217397,1.309538 1.702582,1.307547 1.924646,-0.0021 2.391309,-0.628322 3.65811,-1.748411 3.455949,-3.055701 8.284636,-5.039274 12.251909,-5.032951 1.791778,0.0029 1.29953,0.267596 -1.809081,0.972954 -5.310043,1.204875 -10.5426,5.612232 -7.251581,6.107973 3.430131,0.516693 5.155151,0.28777 7.753616,-1.028962 3.012189,-1.526381 4.514103,-2.036641 5.994697,-2.036641 1.668349,0 1.293233,0.492793 -0.880327,1.156495 -2.346085,0.716384 -3.439622,1.691709 -2.528269,2.254955 0.149574,0.09244 2.76003,0.254761 5.801018,0.360715 3.040986,0.10595 7.166967,0.263602 7.253702,0.350339 0.363361,0.363359 -1.918689,0.471098 -5.750849,0.630347 -3.892115,0.161743 -4.83879,0.374326 -4.452239,0.999777 0.318143,0.51477 2.952219,1.297119 4.367233,1.297119 1.361241,0 1.4083,0.02098 0.988611,0.44061 -1.067957,1.067822 -5.27884,0.207173 -7.780769,-1.590285 l -1.290697,-0.927273 -3.793028,0.2202 c -4.460918,0.258973 -4.707656,0.444464 -2.875508,2.161724 2.222155,2.082815 5.11361,3.750293 7.012893,4.044274 2.05586,0.31822 2.070206,0.686286 0.02675,0.686286 -2.956316,0 -5.158909,-0.977951 -7.978242,-3.542345 -3.387659,-3.08133 -3.291465,-2.536763 -6.087619,-2.412934 -5.280946,0.233872 1.046245,7.733154 6.166651,8.897713 1.859452,0.422904 2.016766,0.836415 0.503902,0.828909 -4.440676,-0.02203 -9.586229,-3.816393 -11.24321,-9.1216 -0.201953,-0.646596 -1.500866,-0.54587 -2.819885,-0.584261 -1.484653,-0.04321 -2.99478,-0.143494 -2.99478,0.601519 0,7.403296 10.868323,13.317155 19.745959,10.744516 z"
       id="path1042"
       sodipodi:nodetypes="czcscccscscccscccsssssssssssscssssscsssssssssscss" />
  </g>
</svg>
