<?xml version="1.0" encoding="UTF-8" standalone="no"?>
<!-- Created with Inkscape (http://www.inkscape.org/) -->

<svg
   width="207.423"
   height="106.975"
   viewBox="0 0 54.88067 28.303803"
   version="1.1"
   id="svg5"
   sodipodi:docname="eau.svg"
   inkscape:version="1.1 (c68e22c387, 2021-05-23)"
   xmlns:inkscape="http://www.inkscape.org/namespaces/inkscape"
   xmlns:sodipodi="http://sodipodi.sourceforge.net/DTD/sodipodi-0.dtd"
   xmlns="http://www.w3.org/2000/svg"
   xmlns:svg="http://www.w3.org/2000/svg">
  <sodipodi:namedview
     id="namedview7"
     pagecolor="#505050"
     bordercolor="#eeeeee"
     borderopacity="1"
     inkscape:pageshadow="0"
     inkscape:pageopacity="0"
     inkscape:pagecheckerboard="0"
     inkscape:document-units="mm"
     showgrid="false"
     units="px"
     inkscape:zoom="0.90457687"
     inkscape:cx="-131.55322"
     inkscape:cy="20.451551"
     inkscape:window-width="1920"
     inkscape:window-height="991"
     inkscape:window-x="-9"
     inkscape:window-y="-9"
     inkscape:window-maximized="1"
     inkscape:current-layer="layer1"
     width="816.414px"
     inkscape:snap-global="false" />
  <defs
     id="defs2" />
  <g
     inkscape:label="Calque 1"
     inkscape:groupmode="layer"
     id="layer1"
     transform="translate(-126.32727,-58.883094)">
    <g
       id="g16779"
       transform="translate(-208.93143)">
      <g
         id="g9335"
         style="fill:#00a9ff;fill-opacity:1;stroke:none"
         transform="translate(4.2333355,4.2333339)">
        <g
           id="g18762"
           style="stroke:#00a9ff;stroke-opacity:1;stroke-width:0.52916667;stroke-miterlimit:4;stroke-dasharray:none;stroke-linejoin:round;stroke-linecap:round">
          <path
             d="m 347.10342,78.720315 c -1.15147,0 -2.17593,-0.254 -3.0734,-0.762 -0.88053,-0.524933 -1.56633,-1.236133 -2.0574,-2.1336 -0.47413,-0.897467 -0.7112,-1.888067 -0.7112,-2.9718 0,-1.049867 0.24553,-2.040467 0.7366,-2.9718 0.49107,-0.948267 1.18533,-1.7018 2.0828,-2.2606 0.89747,-0.575733 1.92193,-0.8636 3.0734,-0.8636 1.10067,0 2.12513,0.347133 3.0734,1.0414 0.9652,0.677333 1.65947,1.634067 2.0828,2.8702 l -8.0264,4.2672 c 0.32173,0.575733 0.77047,1.032933 1.3462,1.3716 0.57573,0.321733 1.25307,0.4826 2.032,0.4826 0.99907,0 1.91347,-0.2794 2.7432,-0.8382 0.82973,-0.5588 1.4478,-1.4732 1.8542,-2.7432 l 0.254,-0.1016 c 0.0339,0.338667 0.0508,0.5842 0.0508,0.7366 0,0.897467 -0.2286,1.718733 -0.6858,2.4638 -0.4572,0.745067 -1.10067,1.337733 -1.9304,1.778 -0.82973,0.423333 -1.778,0.635 -2.8448,0.635 z m -3.5814,-5.9944 c 0,0.1524 0.0169,0.381 0.0508,0.6858 l 6.3246,-3.2766 c -0.254,-0.4572 -0.62653,-0.804333 -1.1176,-1.0414 -0.49107,-0.237067 -1.0668,-0.3556 -1.7272,-0.3556 -1.08373,0 -1.94733,0.381 -2.5908,1.143 -0.62653,0.745067 -0.9398,1.693333 -0.9398,2.8448 z"
             id="path7237"
             sodipodi:nodetypes="sccsccsccccssccsscssccsscs"
             style="font-size:25.4px;line-height:0.8;font-family:'DT Nouveau';-inkscape-font-specification:'DT Nouveau';fill:#00a9ff;fill-opacity:1;stroke:#00a9ff;stroke-width:0.52916667;stroke-linecap:round;stroke-linejoin:round;stroke-miterlimit:4;stroke-dasharray:none;stroke-opacity:1" />
          <path
             d="m 359.29539,78.720315 q -1.4986,0 -2.6162,-0.6096 -1.0922,-0.6096 -1.6764,-1.6002 -0.5842,-0.9906 -0.5842,-2.0828 0,-1.2954 0.6604,-2.286 0.6604,-1.016 1.7018,-1.5748 1.0668,-0.5588 2.2098,-0.5588 1.1684,0 1.9812,0.4572 0.8382,0.4318 1.2446,1.1176 0.4318,0.6604 0.4318,1.3462 0,0.7112 -0.381,1.1938 -0.381,0.4572 -1.0668,0.4572 -0.4318,0 -0.7366,-0.2286 -0.2794,-0.2286 -0.4064,-0.5588 l 0.1778,-0.0508 q 0.0254,0.1016 0.127,0.1778 0.1016,0.0508 0.2794,0.0508 0.3048,0 0.4826,-0.2286 0.2032,-0.2286 0.2032,-0.5588 0,-0.6096 -0.6096,-1.0922 -0.5842,-0.508 -1.651,-0.508 -0.5334,0 -1.1176,0.2794 -0.5842,0.254 -0.9906,0.8382 -0.381,0.5588 -0.381,1.397 0,1.2954 0.9144,2.0574 0.9398,0.7366 2.1844,0.7366 1.4478,0 2.413,-0.7874 0.9652,-0.8128 1.4224,-1.8542 0.4572,-1.0668 0.4572,-1.778 0,-1.7526 -0.7366,-2.794 -0.7112,-1.0668 -2.6162,-1.0668 h -1.6256 q -1.4224,0 -2.3368,-0.4318 -0.9144,-0.4572 -1.27,-1.0922 l 0.9652,-2.0574 0.1524,0.0508 q -0.0762,0.3048 0.127,0.7112 0.2032,0.381 0.8128,0.6858 0.635,0.3048 1.7526,0.3048 h 1.4986 q 2.2098,0 3.429,0.635 1.2192,0.635 1.6764,1.7526 0.4572,1.1176 0.4572,2.7686 v 4.572 q 0,0.762 0.3048,1.27 0.3048,0.508 0.7366,0.7112 v 0.1016 h -3.9116 v -0.1016 q 0.254,-0.2032 0.4064,-0.7112 0.1778,-0.508 0.1778,-1.27 v -1.3716 q -0.2794,1.397 -1.4224,2.4892 -1.143,1.0922 -3.2512,1.0922 z"
             id="path7239"
             style="font-size:25.4px;line-height:0.8;font-family:'DT Nouveau';-inkscape-font-specification:'DT Nouveau';fill:#00a9ff;fill-opacity:1;stroke:#00a9ff;stroke-width:0.52916667;stroke-linecap:round;stroke-linejoin:round;stroke-miterlimit:4;stroke-dasharray:none;stroke-opacity:1" />
          <path
             d="m 374.12892,78.720315 q -2.0828,0 -3.302,-1.2192 -1.1938,-1.2192 -1.1938,-3.6576 v -4.8514 q 0,-0.762 -0.3048,-1.27 -0.2794,-0.508 -0.7112,-0.7112 v -0.1016 h 4.3434 v 0.1016 q -0.4318,0.2032 -0.7366,0.7112 -0.3048,0.508 -0.3048,1.27 v 4.1402 q 0,1.9558 0.6604,2.8194 0.6858,0.8382 1.9558,0.8382 1.0922,0 1.9558,-0.7112 0.889,-0.7366 1.3716,-1.7526 0.4826,-1.0414 0.4826,-1.8542 v -5.5626 h 3.17499 v 0.1016 q -0.38099,0.2032 -0.63499,0.7112 -0.254,0.508 -0.254,1.27 v 7.5184 q 0,0.762 0.3048,1.27 0.3048,0.508 0.73659,0.7112 v 0.1016 h -3.91159 v -0.1016 q 0.254,-0.2032 0.4064,-0.7112 0.1778,-0.508 0.1778,-1.27 v -1.3716 q -0.1778,0.8382 -0.6858,1.651 -0.508,0.8128 -1.4224,1.3716 -0.889,0.5588 -2.1082,0.5588 z"
             id="path7241"
             style="font-size:25.4px;line-height:0.8;font-family:'DT Nouveau';-inkscape-font-specification:'DT Nouveau';fill:#00a9ff;fill-opacity:1;stroke:#00a9ff;stroke-width:0.52916667;stroke-linecap:round;stroke-linejoin:round;stroke-miterlimit:4;stroke-dasharray:none;stroke-opacity:1" />
        </g>
      </g>
      <path
         d="m 342.01426,69.828169 c -0.7199,0 -1.32024,-0.24697 -1.80104,-0.740909 -0.4808,-0.493939 -0.7212,-1.108736 -0.7212,-1.84439 0,-0.525467 0.20887,-1.096912 0.62662,-1.714337 0.41774,-0.617423 1.04962,-1.28608 1.89562,-2.00597 0.846,0.71989 1.47788,1.388547 1.89562,2.00597 0.41775,0.617425 0.62662,1.18887 0.62662,1.714337 0,0.735654 -0.2404,1.350451 -0.7212,1.84439 -0.4808,0.493939 -1.08114,0.740909 -1.80104,0.740909 z"
         id="path8285"
         style="fill:#00a9ff;fill-opacity:1;stroke-width:0.15764"
         sodipodi:nodetypes="sssscssss" />
    </g>
  </g>
</svg>
