<?xml version="1.0" encoding="UTF-8" standalone="no"?>
<!-- Created with Inkscape (http://www.inkscape.org/) -->

<svg
   width="207.423"
   height="106.975"
   viewBox="0 0 54.88067 28.303803"
   version="1.1"
   id="svg5"
   sodipodi:docname="eau.svg"
   inkscape:version="1.1 (c68e22c387, 2021-05-23)"
   xmlns:inkscape="http://www.inkscape.org/namespaces/inkscape"
   xmlns:sodipodi="http://sodipodi.sourceforge.net/DTD/sodipodi-0.dtd"
   xmlns="http://www.w3.org/2000/svg"
   xmlns:svg="http://www.w3.org/2000/svg">
  <sodipodi:namedview
     id="namedview7"
     pagecolor="#505050"
     bordercolor="#eeeeee"
     borderopacity="1"
     inkscape:pageshadow="0"
     inkscape:pageopacity="0"
     inkscape:pagecheckerboard="0"
     inkscape:document-units="mm"
     showgrid="false"
     units="px"
     inkscape:zoom="2.8284271"
     inkscape:cx="-0.70710678"
     inkscape:cy="10.429825"
     inkscape:window-width="1920"
     inkscape:window-height="991"
     inkscape:window-x="-9"
     inkscape:window-y="-9"
     inkscape:window-maximized="1"
     inkscape:current-layer="layer1"
     width="816.414px"
     inkscape:snap-global="false" />
  <defs
     id="defs2" />
  <g
     inkscape:label="Calque 1"
     inkscape:groupmode="layer"
     id="layer1"
     transform="translate(-126.32727,-58.883094)">
    <g
       id="g16779"
       transform="translate(-208.93143)"
       style="fill-opacity:1;fill:#00ceff">
      <g
         id="g9335"
         style="fill:#00ceff;fill-opacity:1;stroke:none"
         transform="translate(4.2333355,4.2333339)">
        <g
           id="g18762"
           style="stroke:#00a9ff;stroke-opacity:1;stroke-width:0.52916667;stroke-miterlimit:4;stroke-dasharray:none;stroke-linejoin:round;stroke-linecap:round;fill-opacity:1;fill:#00ceff">
          <g
             id="path7237"
             style="fill-opacity:1;fill:#00ceff">
            <path
               id="path867"
               style="color:#000000;-inkscape-font-specification:'DT Nouveau';fill:#00ceff;fill-opacity:1;stroke:none;stroke-width:2;-inkscape-stroke:none"
               d="m 60.958984,44.757812 c -4.512869,0 -8.5902,1.142875 -12.142578,3.417969 -0.0031,0.0019 -0.004,0.0059 -0.0078,0.0078 -3.533594,2.202364 -6.290789,5.195319 -8.222656,8.925781 -1.92601,3.655264 -2.902344,7.571902 -2.902344,11.693359 0,4.241828 0.937021,8.160228 2.80664,11.699219 l 0.0078,0.0078 c 1.937423,3.540771 4.667579,6.37483 8.140625,8.445312 0.0078,0.0047 0.01556,0.0092 0.02344,0.01367 3.551547,2.010308 7.606395,3.005859 12.105469,3.005859 4.164246,0 7.916499,-0.832867 11.207031,-2.511718 0.0046,-0.0019 0.0091,-0.0039 0.01367,-0.0059 8.327837,-4.808079 11.173613,-10.031861 10.416016,-16.912109 -0.558562,-5.072674 -5.788592,-6.699951 -5.788592,-3.816531 0,2.53483 -0.297445,8.427261 -3.926252,10.955203 -2.981745,2.008119 -6.220978,2.996094 -9.810547,2.996094 -2.806299,0 -5.181125,-0.574954 -7.189453,-1.697266 C 53.9867,79.977317 52.79617,78.52824 51.732422,76.943359 L 80.921875,61.427734 c 0.434163,-0.232258 0.634678,-0.745974 0.472656,-1.210937 -1.657323,-4.839417 -4.420229,-8.653073 -8.246093,-11.337891 -3.727635,-2.723554 -7.82483,-4.11914 -12.1875,-4.11914 z m -0.382812,9.486329 c 2.37634,0 4.391891,0.428346 6.089844,1.248047 1.333379,0.643695 2.183569,1.681447 2.990234,2.77539 L 48.306641,69.333984 c -0.0189,-0.315137 -0.07227,-0.807023 -0.07227,-1.011718 0,-4.167992 1.112576,-7.484461 3.314453,-10.105469 2.253468,-2.668562 5.165763,-3.972656 9.027344,-3.972656 z"
               transform="matrix(0.26458333,0,0,0.26458333,331.02536,54.64976)"
               sodipodi:nodetypes="ccccsccccsccsccscccccccssccscss" />
          </g>
          <g
             id="path7239"
             style="fill-opacity:1;fill:#00ceff">
            <path
               id="path875"
               style="color:#000000;-inkscape-font-specification:'DT Nouveau';stroke:none;stroke-width:2;-inkscape-stroke:none;fill-opacity:1;fill:#00ceff"
               d="M 95.671875 38.232422 A 1.0001001 1.0001001 0 0 0 94.806641 38.808594 L 91.158203 46.582031 A 1.0001001 1.0001001 0 0 0 91.189453 47.498047 C 92.214007 49.327595 93.992734 50.817667 96.416016 52.029297 A 1.0001001 1.0001001 0 0 0 96.4375 52.037109 C 98.922539 53.2106 102.01016 53.765625 105.69531 53.765625 L 111.83789 53.765625 C 116.45122 53.765625 119.33113 55.006441 120.89453 57.351562 A 1.0001001 1.0001001 0 0 0 120.91016 57.375 C 122.61344 59.783077 123.51562 63.087385 123.51562 67.363281 C 123.51562 68.940996 122.98947 71.075411 121.86914 73.689453 C 120.78479 76.157076 119.09734 78.352204 116.77539 80.310547 C 114.53319 82.139736 111.75381 83.064453 108.28711 83.064453 C 105.36032 83.064453 102.86863 82.219476 100.67578 80.509766 C 100.67393 80.508231 100.67763 80.503843 100.67578 80.501953 C 98.589633 78.761027 97.576172 76.52994 97.576172 73.503906 C 97.576172 71.543424 98.016815 70.002828 98.845703 68.787109 C 99.778755 67.448979 100.87058 66.535295 102.16016 65.974609 A 1.0001001 1.0001001 0 0 0 102.18945 65.958984 C 103.55458 65.306097 104.81495 65 105.98438 65 C 108.51363 65 110.3277 65.593551 111.57227 66.675781 A 1.0001001 1.0001001 0 0 0 111.60352 66.705078 C 112.97889 67.793888 113.5293 68.846164 113.5293 70.048828 C 113.5293 70.675697 113.3648 71.098786 113.01172 71.496094 A 1.0001001 1.0001001 0 0 0 112.97461 71.546875 C 112.69644 71.904305 112.45162 72.019531 111.93359 72.019531 C 111.62367 72.019531 111.47812 71.975083 111.40234 71.947266 C 111.40098 71.94273 111.37305 71.918283 111.37305 71.916016 A 1.0001001 1.0001001 0 0 0 110.125 71.201172 L 109.45312 71.392578 A 1.0001001 1.0001001 0 0 0 108.79492 72.707031 C 109.17537 73.69619 109.80561 74.559875 110.63477 75.238281 A 1.0001001 1.0001001 0 0 0 110.66406 75.261719 C 111.6134 75.973717 112.78826 76.324219 114.05273 76.324219 C 116.00297 76.324219 117.70266 75.620872 118.85156 74.242188 A 1.0001001 1.0001001 0 0 0 118.86523 74.220703 C 119.97328 72.817191 120.51953 71.060414 120.51953 69.089844 C 120.51953 67.159613 119.89822 65.263086 118.73242 63.472656 C 117.60408 61.576898 115.89282 60.046671 113.66211 58.894531 C 111.43824 57.64714 108.76568 57.050781 105.69727 57.050781 C 102.65433 57.050781 99.700866 57.795371 96.882812 59.271484 A 1.0001001 1.0001001 0 0 0 96.875 59.279297 C 94.109217 60.76337 91.832469 62.873741 90.083984 65.560547 C 90.082019 65.563574 90.079951 65.565336 90.076172 65.568359 C 88.306597 68.228705 87.417969 71.323846 87.417969 74.751953 C 87.417969 77.682247 88.211937 80.496343 89.765625 83.130859 C 91.330538 85.784424 93.589533 87.933558 96.476562 89.544922 A 1.0001001 1.0001001 0 0 0 96.484375 89.552734 C 99.465326 91.17871 102.93607 91.974609 106.84766 91.974609 C 112.33236 91.974609 116.72412 90.538374 119.82617 87.574219 C 121.78174 85.705564 122.50502 83.349887 123.51562 81.107422 L 123.51562 82.621094 C 123.51562 84.463311 123.29281 85.960901 122.89648 87.09375 A 1.0001001 1.0001001 0 0 0 122.88086 87.138672 C 122.53012 88.307362 122.07647 89.013028 121.67773 89.332031 A 1.0001001 1.0001001 0 0 0 121.30859 90.113281 L 121.30859 90.498047 A 1.0001001 1.0001001 0 0 0 122.30469 91.494141 L 137.0918 91.494141 A 1.0001001 1.0001001 0 0 0 138.08789 90.498047 L 138.08789 90.113281 A 1.0001001 1.0001001 0 0 0 137.51172 89.205078 C 136.63222 88.791186 135.85515 88.061952 135.16406 86.910156 C 134.50956 85.819313 134.15234 84.407756 134.15234 82.621094 L 134.15234 65.347656 C 134.15234 61.095355 133.56891 57.479623 132.35156 54.503906 C 131.10674 51.461028 128.79247 49.060417 125.55273 47.373047 C 122.26122 45.658706 117.79659 44.855469 112.13281 44.855469 L 106.46289 44.855469 C 103.73781 44.855469 101.67101 44.469743 100.27734 43.800781 C 98.865274 43.092683 98.034343 42.338971 97.664062 41.652344 C 97.227527 40.772262 97.142726 40.12637 97.257812 39.666016 A 1.0001001 1.0001001 0 0 0 96.609375 38.476562 L 96.03125 38.285156 A 1.0001001 1.0001001 0 0 0 95.671875 38.232422 z "
               transform="matrix(0.26458333,0,0,0.26458333,331.02536,54.64976)" />
          </g>
          <g
             id="path7241"
             style="fill-opacity:1;fill:#00ceff">
            <path
               id="path883"
               style="color:#000000;-inkscape-font-specification:'DT Nouveau';stroke:none;stroke-width:2;-inkscape-stroke:none;fill-opacity:1;fill:#00ceff"
               d="M 142.08008 45.333984 A 1.0001001 1.0001001 0 0 0 141.07617 46.337891 L 141.07617 46.722656 A 1.0001001 1.0001001 0 0 0 141.65039 47.623047 C 142.52305 48.033723 143.26237 48.749946 143.88867 49.888672 A 1.0001001 1.0001001 0 0 0 143.91016 49.917969 C 144.56466 51.008816 144.92188 52.420369 144.92188 54.207031 L 144.92188 72.544922 C 144.92188 78.852111 146.47957 83.754339 149.7207 87.064453 A 1.0001001 1.0001001 0 0 0 149.72852 87.072266 C 153.00185 90.34559 157.46898 91.972656 162.91211 91.972656 C 166.13688 91.972656 168.99384 91.22464 171.4082 89.707031 C 173.82147 88.230495 175.74086 86.393484 177.10742 84.207031 C 177.47063 83.626125 177.54527 83.010937 177.8457 82.421875 L 177.8457 82.621094 C 177.8457 84.463311 177.62893 85.960901 177.23242 87.09375 A 1.0001001 1.0001001 0 0 0 177.2168 87.138672 C 176.86606 88.307362 176.41245 89.011075 176.01367 89.330078 A 1.0001001 1.0001001 0 0 0 175.63867 90.113281 L 175.63867 90.498047 A 1.0001001 1.0001001 0 0 0 176.64258 91.494141 L 191.41992 91.494141 A 1.0001001 1.0001001 0 0 0 192.42383 90.498047 L 192.42383 90.113281 A 1.0001001 1.0001001 0 0 0 191.84766 89.205078 C 190.96816 88.791186 190.18523 88.061956 189.49414 86.910156 C 188.83964 85.819313 188.49023 84.407756 188.49023 82.621094 L 188.49023 54.207031 C 188.49023 52.398146 188.78755 50.952675 189.33789 49.851562 C 189.9123 48.702741 190.58034 47.994146 191.31641 47.601562 A 1.0001001 1.0001001 0 0 0 191.84766 46.722656 L 191.84766 46.337891 A 1.0001001 1.0001001 0 0 0 190.84375 45.333984 L 178.84961 45.333984 A 1.0001001 1.0001001 0 0 0 177.8457 46.337891 L 177.8457 67.361328 C 177.8457 69.211411 177.29145 71.413315 176.11719 73.947266 C 174.96326 76.374633 173.33411 78.453388 171.20117 80.220703 C 169.18483 81.881189 166.98219 82.679688 164.44727 82.679688 C 161.47127 82.679688 159.37573 81.755568 157.83984 79.882812 C 156.40306 77.993858 155.55859 74.662006 155.55859 69.857422 L 155.55859 54.207031 C 155.55859 52.420369 155.91577 51.008816 156.57031 49.917969 C 157.2614 48.766173 158.03843 48.036939 158.91797 47.623047 A 1.0001001 1.0001001 0 0 0 159.49414 46.722656 L 159.49414 46.337891 A 1.0001001 1.0001001 0 0 0 158.49805 45.333984 L 142.08008 45.333984 z "
               transform="matrix(0.26458333,0,0,0.26458333,331.02536,54.64976)" />
          </g>
        </g>
      </g>
      <path
         d="m 342.01426,69.828169 c -0.7199,0 -1.32024,-0.24697 -1.80104,-0.740909 -0.4808,-0.493939 -0.7212,-1.108736 -0.7212,-1.84439 0,-0.525467 0.20887,-1.096912 0.62662,-1.714337 0.41774,-0.617423 1.04962,-1.28608 1.89562,-2.00597 0.846,0.71989 1.47788,1.388547 1.89562,2.00597 0.41775,0.617425 0.62662,1.18887 0.62662,1.714337 0,0.735654 -0.2404,1.350451 -0.7212,1.84439 -0.4808,0.493939 -1.08114,0.740909 -1.80104,0.740909 z"
         id="path8285"
         style="fill:#00ceff;fill-opacity:1;stroke-width:0.15764"
         sodipodi:nodetypes="sssscssss" />
    </g>
    <g
       id="g1770"
       style="fill:#0083d1;fill-opacity:1;stroke:#00a9ff;stroke-width:0.529167;stroke-linecap:round;stroke-linejoin:round;stroke-miterlimit:4;stroke-dasharray:none;stroke-opacity:1"
       transform="matrix(0.79305579,0,0,0.79305579,-132.90666,19.286107)" />
    <g
       id="g1774"
       style="fill:#0083d1;fill-opacity:1;stroke:#00a9ff;stroke-width:0.529167;stroke-linecap:round;stroke-linejoin:round;stroke-miterlimit:4;stroke-dasharray:none;stroke-opacity:1"
       transform="translate(-204.69809,4.2333339)" />
    <g
       id="g1778"
       style="fill:#0083d1;fill-opacity:1;stroke:#00a9ff;stroke-width:0.529167;stroke-linecap:round;stroke-linejoin:round;stroke-miterlimit:4;stroke-dasharray:none;stroke-opacity:1"
       transform="translate(-204.69809,4.2333339)" />
  </g>
</svg>
