<?xml version="1.0" encoding="UTF-8" standalone="no"?>
<!-- Created with Inkscape (http://www.inkscape.org/) -->

<svg
   width="800.414"
   height="199.81763"
   viewBox="0 0 211.77621 52.868416"
   version="1.1"
   id="svg5"
   inkscape:version="1.1 (c68e22c387, 2021-05-23)"
   sodipodi:docname="rooteldorad.svg"
   xmlns:inkscape="http://www.inkscape.org/namespaces/inkscape"
   xmlns:sodipodi="http://sodipodi.sourceforge.net/DTD/sodipodi-0.dtd"
   xmlns:xlink="http://www.w3.org/1999/xlink"
   xmlns="http://www.w3.org/2000/svg"
   xmlns:svg="http://www.w3.org/2000/svg">
  <sodipodi:namedview
     id="namedview7"
     pagecolor="#505050"
     bordercolor="#eeeeee"
     borderopacity="1"
     inkscape:pageshadow="0"
     inkscape:pageopacity="0"
     inkscape:pagecheckerboard="0"
     inkscape:document-units="mm"
     showgrid="false"
     units="px"
     inkscape:zoom="3.6183075"
     inkscape:cx="418.1513"
     inkscape:cy="59.558232"
     inkscape:window-width="1920"
     inkscape:window-height="991"
     inkscape:window-x="-9"
     inkscape:window-y="-9"
     inkscape:window-maximized="1"
     inkscape:current-layer="layer1"
     width="816.414px"
     showguides="false" />
  <defs
     id="defs2">
    <linearGradient
       inkscape:collect="always"
       id="linearGradient17265">
      <stop
         style="stop-color:#b65d21;stop-opacity:1;"
         offset="0"
         id="stop17261" />
      <stop
         style="stop-color:#4e1b0e;stop-opacity:1"
         offset="1"
         id="stop17263" />
    </linearGradient>
    <linearGradient
       inkscape:collect="always"
       xlink:href="#linearGradient17265"
       id="linearGradient17267"
       x1="207.21027"
       y1="77.966255"
       x2="207.21027"
       y2="103.28484"
       gradientUnits="userSpaceOnUse" />
  </defs>
  <g
     inkscape:label="Calque 1"
     inkscape:groupmode="layer"
     id="layer1"
     transform="translate(-126.32727,-58.883094)">
    <g
       id="g17555"
       style="fill:#3b150b;fill-opacity:1"
       transform="translate(4.2333355,4.8854457)">
      <path
         d="m 127.85127,61.499115 q 0,-0.7112 -0.3048,-1.143 -0.2794,-0.4318 -0.7112,-0.5842 v -0.2286 h 4.6228 v 0.2286 q -0.4826,0.1524 -0.8382,0.5842 -0.3302,0.4318 -0.3302,1.143 v 14.4018 h -2.4384 z m -1.524,14.9098 5.969,0.0254 v -0.0254 h 5.0038 q 1.3462,0 2.3114,-0.6858 0.9652,-0.6858 1.4478,-1.651 h 0.3302 l -1.524,4.5212 h -13.5382 z"
         id="path17525"
         style="font-size:25.4px;line-height:0.8;font-family:'DT Nouveau';-inkscape-font-specification:'DT Nouveau';fill:#3b150b;fill-opacity:1;stroke-width:0.264583" />
      <path
         d="m 147.28221,78.720315 q -1.4986,0 -2.6162,-0.6096 -1.0922,-0.6096 -1.6764,-1.6002 -0.5842,-0.9906 -0.5842,-2.0828 0,-1.2954 0.6604,-2.286 0.6604,-1.016 1.7018,-1.5748 1.0668,-0.5588 2.2098,-0.5588 1.1684,0 1.9812,0.4572 0.8382,0.4318 1.2446,1.1176 0.4318,0.6604 0.4318,1.3462 0,0.7112 -0.381,1.1938 -0.381,0.4572 -1.0668,0.4572 -0.4318,0 -0.7366,-0.2286 -0.2794,-0.2286 -0.4064,-0.5588 l 0.1778,-0.0508 q 0.0254,0.1016 0.127,0.1778 0.1016,0.0508 0.2794,0.0508 0.3048,0 0.4826,-0.2286 0.2032,-0.2286 0.2032,-0.5588 0,-0.6096 -0.6096,-1.0922 -0.5842,-0.508 -1.651,-0.508 -0.5334,0 -1.1176,0.2794 -0.5842,0.254 -0.9906,0.8382 -0.381,0.5588 -0.381,1.397 0,1.2954 0.9144,2.0574 0.9398,0.7366 2.1844,0.7366 1.4478,0 2.413,-0.7874 0.9652,-0.8128 1.4224,-1.8542 0.4572,-1.0668 0.4572,-1.778 0,-1.7526 -0.7366,-2.794 -0.7112,-1.0668 -2.6162,-1.0668 h -1.6256 q -1.4224,0 -2.3368,-0.4318 -0.9144,-0.4572 -1.27,-1.0922 l 0.9652,-2.0574 0.1524,0.0508 q -0.0762,0.3048 0.127,0.7112 0.2032,0.381 0.8128,0.6858 0.635,0.3048 1.7526,0.3048 h 1.4986 q 2.2098,0 3.429,0.635 1.2192,0.635 1.6764,1.7526 0.4572,1.1176 0.4572,2.7686 v 4.572 q 0,0.762 0.3048,1.27 0.3048,0.508 0.7366,0.7112 v 0.1016 h -3.9116 v -0.1016 q 0.254,-0.2032 0.4064,-0.7112 0.1778,-0.508 0.1778,-1.27 v -1.3716 q -0.2794,1.397 -1.4224,2.4892 -1.143,1.0922 -3.2512,1.0922 z"
         id="path17527"
         style="font-size:25.4px;line-height:0.8;font-family:'DT Nouveau';-inkscape-font-specification:'DT Nouveau';fill:#3b150b;fill-opacity:1;stroke-width:0.264583" />
      <path
         d="m 164.14778,78.491715 q 0.4318,-0.2032 0.7366,-0.7112 0.3048,-0.508 0.3048,-1.27 v -7.5184 q 0,-0.762 -0.254,-1.27 -0.254,-0.508 -0.635,-0.7112 v -0.1016 h 3.175 v 3.8862 q 0.127,-0.7874 0.6096,-1.7018 0.4826,-0.9398 1.3208,-1.6256 0.8382,-0.6858 2.0066,-0.6858 1.651,0 2.54,0.9906 0.889,0.9652 0.889,2.3114 0,1.27 -0.7874,2.2098 -0.7874,0.9144 -2.159,0.9144 -0.8128,0 -1.2954,-0.3556 -0.4572,-0.381 -0.5588,-0.889 l 0.2286,-0.0762 q 0.0508,0.1524 0.254,0.3048 0.2032,0.1524 0.5334,0.1524 0.7112,0 1.143,-0.508 0.4318,-0.508 0.4318,-1.1938 0,-0.7112 -0.4826,-1.1938 -0.4572,-0.508 -1.397,-0.508 -1.0922,0 -1.8288,0.8382 -0.7366,0.8128 -1.0922,1.8542 -0.3556,1.0414 -0.3556,1.5748 v 3.302 q 0,0.762 0.2794,1.27 0.3048,0.508 0.7366,0.7112 v 0.1016 h -4.3434 z"
         id="path17529"
         style="font-size:25.4px;line-height:0.8;font-family:'DT Nouveau';-inkscape-font-specification:'DT Nouveau';fill:#3b150b;fill-opacity:1;stroke-width:0.264583" />
      <path
         d="m 182.46113,78.720315 q -1.6764,0 -3.0734,-0.7874 -1.397,-0.8128 -2.2098,-2.1844 -0.8128,-1.3716 -0.8128,-2.9972 0,-1.6256 0.8128,-2.9972 0.8128,-1.3716 2.2098,-2.159 1.397,-0.8128 3.0734,-0.8128 1.651,0 3.048,0.8128 1.4224,0.7874 2.2352,2.159 0.8128,1.3716 0.8128,2.9972 0,1.6256 -0.8128,2.9972 -0.8128,1.3716 -2.2352,2.1844 -1.397,0.7874 -3.048,0.7874 z m -3.7592,-5.969 q 0,1.0922 0.508,2.0066 0.508,0.9144 1.3716,1.4732 0.8636,0.5334 1.8796,0.5334 1.016,0 1.8796,-0.5334 0.8636,-0.5588 1.3716,-1.4732 0.508,-0.9144 0.508,-2.0066 0,-1.0922 -0.508,-2.0066 -0.508,-0.9144 -1.3716,-1.4478 -0.8636,-0.5588 -1.8796,-0.5588 -1.016,0 -1.8796,0.5588 -0.8636,0.5334 -1.3716,1.4478 -0.508,0.9144 -0.508,2.0066 z"
         id="path17531"
         style="font-size:25.4px;line-height:0.8;font-family:'DT Nouveau';-inkscape-font-specification:'DT Nouveau';fill:#3b150b;fill-opacity:1;stroke-width:0.264583" />
      <path
         d="m 196.4565,78.720315 q -1.6764,0 -3.0734,-0.7874 -1.397,-0.8128 -2.2098,-2.1844 -0.8128,-1.3716 -0.8128,-2.9972 0,-1.6256 0.8128,-2.9972 0.8128,-1.3716 2.2098,-2.159 1.397,-0.8128 3.0734,-0.8128 1.651,0 3.048,0.8128 1.4224,0.7874 2.2352,2.159 0.8128,1.3716 0.8128,2.9972 0,1.6256 -0.8128,2.9972 -0.8128,1.3716 -2.2352,2.1844 -1.397,0.7874 -3.048,0.7874 z m -3.7592,-5.969 q 0,1.0922 0.508,2.0066 0.508,0.9144 1.3716,1.4732 0.8636,0.5334 1.8796,0.5334 1.016,0 1.8796,-0.5334 0.8636,-0.5588 1.3716,-1.4732 0.508,-0.9144 0.508,-2.0066 0,-1.0922 -0.508,-2.0066 -0.508,-0.9144 -1.3716,-1.4478 -0.8636,-0.5588 -1.8796,-0.5588 -1.016,0 -1.8796,0.5588 -0.8636,0.5334 -1.3716,1.4478 -0.508,0.9144 -0.508,2.0066 z"
         id="path17533"
         style="font-size:25.4px;line-height:0.8;font-family:'DT Nouveau';-inkscape-font-specification:'DT Nouveau';fill:#3b150b;fill-opacity:1;stroke-width:0.264583" />
      <path
         d="m 205.54965,93.81109 c -1.3934,-5.200235 1.12296,-8.238961 1.143,-11.44683 V 68.687315 c -3.54187,0 -4.52344,-1.085829 -4.52344,-1.085829 1.86347,-0.136627 2.39057,0.28798 4.52344,-0.565171 v -1.524 c 0,-0.762 -0.11007,-1.3462 -0.3302,-1.7526 -0.22013,-0.423333 -0.49107,-0.668867 -0.8128,-0.7366 v -0.1016 l 4.445,-0.762 v 0.1016 c -0.28787,0.06773 -0.5334,0.313267 -0.7366,0.7366 -0.18627,0.4064 -0.2794,0.9906 -0.2794,1.7526 v 2.286 c 1.68294,0.724443 3.35895,-0.132861 4.78197,0.02226 0,0 -1.65349,1.628743 -4.78197,1.628743 -0.301,15.118044 4.97703,14.450096 2.94537,29.421363 -1.22492,-6.840306 -1.49118,-4.46161 -2.15234,-6.929095 -2.24272,1.738784 -2.56141,12.105254 -2.56141,12.105254 -1.24238,-6.059693 -0.19711,-12.695149 0.10028,-15.318841 -1.16406,2.266829 -2.32747,2.281801 -1.7609,5.845094 z"
         id="path17535"
         style="font-size:25.4px;line-height:0.8;font-family:'DT Nouveau';-inkscape-font-specification:'DT Nouveau';fill:#3b150b;fill-opacity:1;stroke-width:0.264583"
         sodipodi:nodetypes="cccccsccccccsccccccccc" />
      <path
         d="m 229.55262,78.618715 q 0.3302,-0.2032 0.5334,-0.7112 0.2286,-0.508 0.2286,-1.27 v -17.3482 h 3.17499 v 0.1016 q -0.381,0.2032 -0.635,0.7112 -0.254,0.508 -0.254,1.27 v 15.2654 q 0,0.762 0.2794,1.27 0.3048,0.508 0.7366,0.7112 v 0.1016 h -4.06399 z m -9.3218,-5.5626 q 0,-1.6256 0.762,-3.0734 0.762,-1.4478 2.1082,-2.3114 1.3462,-0.889 2.9972,-0.889 0.9144,0 1.8542,0.254 0.9398,0.2286 1.6002,0.762 v 2.3622 q -0.4826,-0.6604 -1.3462,-1.0414 -0.8382,-0.381 -1.778,-0.381 -1.016,0 -1.905,0.5334 -0.889,0.5334 -1.4224,1.524 -0.5334,0.9906 -0.5334,2.3368 0,1.6002 0.889,2.6162 0.889,1.016 2.2352,1.016 0.8636,0 1.3716,-0.508 0.5334,-0.508 0.5334,-1.3716 0,-0.7112 -0.4572,-1.1176 -0.4572,-0.4318 -1.1176,-0.4318 -0.3048,0 -0.508,0.1524 -0.2032,0.1524 -0.254,0.3048 l -0.2286,-0.0762 q 0.127,-0.508 0.5842,-0.8636 0.4826,-0.381 1.27,-0.381 1.2446,0 1.9558,0.762 0.7112,0.7366 0.7112,1.8796 0,0.9652 -0.508,1.8034 -0.508,0.8128 -1.4224,1.3208 -0.9144,0.4826 -2.032,0.4826 -1.5494,0 -2.7686,-0.7112 -1.2192,-0.7112 -1.905,-2.0066 -0.6858,-1.2954 -0.6858,-2.9464 z"
         id="path17537"
         style="font-size:25.4px;line-height:0.8;font-family:'DT Nouveau';-inkscape-font-specification:'DT Nouveau';fill:#3b150b;fill-opacity:1;stroke-width:0.264583" />
      <path
         d="m 236.74078,65.207515 -0.254,-3.7846 q -0.0508,-0.762 -0.2794,-1.27 -0.2286,-0.508 -0.508,-0.7112 v -0.1016 h 3.8354 v 0.1016 q -0.2794,0.2032 -0.508,0.7112 -0.2032,0.508 -0.254,1.27 l -0.254,3.7846 z"
         id="path17539"
         style="font-size:25.4px;line-height:0.8;font-family:'DT Nouveau';-inkscape-font-specification:'DT Nouveau';fill:#3b150b;fill-opacity:1;stroke-width:0.264583" />
      <path
         d="m 243.52254,61.727715 q -0.9652,0 -1.524,0.3048 -0.5588,0.2794 -0.7112,0.7112 h -0.4826 l 1.27,-3.2004 h 13.2842 l 1.016,3.2512 h -0.3302 q -0.1524,-0.4572 -0.7874,-0.762 -0.6096,-0.3048 -1.7018,-0.3048 z m -1.2954,16.637 q 0.5334,-0.1524 0.889,-0.7112 0.381,-0.5588 0.381,-1.524 v -13.8938 h 2.4384 v 14.1732 h 7.874 q 0.9652,0 1.6002,-0.4572 0.635,-0.4572 0.889,-1.1176 h 0.3302 l -1.016,3.7592 h -13.3858 z m 4.2164,-10.2616 h 4.7244 v -1.9812 h 1.8288 v 6.0452 h -1.8288 v -1.9812 h -4.7244 z"
         id="path17541"
         style="font-size:25.4px;line-height:0.8;font-family:'DT Nouveau';-inkscape-font-specification:'DT Nouveau';fill:#3b150b;fill-opacity:1;stroke-width:0.264583" />
      <path
         d="m 258.76253,78.491715 q 0.4826,-0.2032 0.8128,-0.8382 0.3302,-0.635 0.3302,-1.651 v -14.6304 q 0,-0.762 -0.3048,-1.27 -0.2794,-0.508 -0.7112,-0.7112 v -0.1016 h 4.318 v 0.1016 q -0.4318,0.2032 -0.7366,0.7112 -0.2794,0.508 -0.2794,1.27 v 14.6304 q 0,1.016 0.3556,1.651 0.381,0.635 0.9144,0.8382 v 0.1016 h -4.699 z"
         id="path17543"
         style="font-size:25.4px;line-height:0.8;font-family:'DT Nouveau';-inkscape-font-specification:'DT Nouveau';fill:#3b150b;fill-opacity:1;stroke-width:0.264583" />
      <path
         d="m 274.23109,78.618715 q 0.3302,-0.2032 0.5334,-0.7112 0.2286,-0.508 0.2286,-1.27 v -17.3482 h 3.175 v 0.1016 q -0.381,0.2032 -0.635,0.7112 -0.254,0.508 -0.254,1.27 v 15.2654 q 0,0.762 0.2794,1.27 0.3048,0.508 0.7366,0.7112 v 0.1016 h -4.064 z m -9.3218,-5.5626 q 0,-1.6256 0.762,-3.0734 0.762,-1.4478 2.1082,-2.3114 1.3462,-0.889 2.9972,-0.889 0.9144,0 1.8542,0.254 0.9398,0.2286 1.6002,0.762 v 2.3622 q -0.4826,-0.6604 -1.3462,-1.0414 -0.8382,-0.381 -1.778,-0.381 -1.016,0 -1.905,0.5334 -0.889,0.5334 -1.4224,1.524 -0.5334,0.9906 -0.5334,2.3368 0,1.6002 0.889,2.6162 0.889,1.016 2.2352,1.016 0.8636,0 1.3716,-0.508 0.5334,-0.508 0.5334,-1.3716 0,-0.7112 -0.4572,-1.1176 -0.4572,-0.4318 -1.1176,-0.4318 -0.3048,0 -0.508,0.1524 -0.2032,0.1524 -0.254,0.3048 l -0.2286,-0.0762 q 0.127,-0.508 0.5842,-0.8636 0.4826,-0.381 1.27,-0.381 1.2446,0 1.9558,0.762 0.7112,0.7366 0.7112,1.8796 0,0.9652 -0.508,1.8034 -0.508,0.8128 -1.4224,1.3208 -0.9144,0.4826 -2.032,0.4826 -1.5494,0 -2.7686,-0.7112 -1.2192,-0.7112 -1.905,-2.0066 -0.6858,-1.2954 -0.6858,-2.9464 z"
         id="path17545"
         style="font-size:25.4px;line-height:0.8;font-family:'DT Nouveau';-inkscape-font-specification:'DT Nouveau';fill:#3b150b;fill-opacity:1;stroke-width:0.264583" />
      <path
         d="m 286.11822,78.720315 q -1.6764,0 -3.0734,-0.7874 -1.397,-0.8128 -2.2098,-2.1844 -0.8128,-1.3716 -0.8128,-2.9972 0,-1.6256 0.8128,-2.9972 0.8128,-1.3716 2.2098,-2.159 1.397,-0.8128 3.0734,-0.8128 1.651,0 3.048,0.8128 1.4224,0.7874 2.2352,2.159 0.8128,1.3716 0.8128,2.9972 0,1.6256 -0.8128,2.9972 -0.8128,1.3716 -2.2352,2.1844 -1.397,0.7874 -3.048,0.7874 z m -3.7592,-5.969 q 0,1.0922 0.508,2.0066 0.508,0.9144 1.3716,1.4732 0.8636,0.5334 1.8796,0.5334 1.016,0 1.8796,-0.5334 0.8636,-0.5588 1.3716,-1.4732 0.508,-0.9144 0.508,-2.0066 0,-1.0922 -0.508,-2.0066 -0.508,-0.9144 -1.3716,-1.4478 -0.8636,-0.5588 -1.8796,-0.5588 -1.016,0 -1.8796,0.5588 -0.8636,0.5334 -1.3716,1.4478 -0.508,0.9144 -0.508,2.0066 z"
         id="path17547"
         style="font-size:25.4px;line-height:0.8;font-family:'DT Nouveau';-inkscape-font-specification:'DT Nouveau';fill:#3b150b;fill-opacity:1;stroke-width:0.264583" />
      <path
         d="m 293.68739,78.491715 q 0.4318,-0.2032 0.7366,-0.7112 0.3048,-0.508 0.3048,-1.27 v -7.5184 q 0,-0.762 -0.254,-1.27 -0.254,-0.508 -0.635,-0.7112 v -0.1016 h 3.175 v 3.8862 q 0.127,-0.7874 0.6096,-1.7018 0.4826,-0.9398 1.3208,-1.6256 0.8382,-0.6858 2.0066,-0.6858 1.651,0 2.54,0.9906 0.889,0.9652 0.889,2.3114 0,1.27 -0.7874,2.2098 -0.7874,0.9144 -2.159,0.9144 -0.8128,0 -1.2954,-0.3556 -0.4572,-0.381 -0.5588,-0.889 l 0.2286,-0.0762 q 0.0508,0.1524 0.254,0.3048 0.2032,0.1524 0.5334,0.1524 0.7112,0 1.143,-0.508 0.4318,-0.508 0.4318,-1.1938 0,-0.7112 -0.4826,-1.1938 -0.4572,-0.508 -1.397,-0.508 -1.0922,0 -1.8288,0.8382 -0.7366,0.8128 -1.0922,1.8542 -0.3556,1.0414 -0.3556,1.5748 v 3.302 q 0,0.762 0.2794,1.27 0.3048,0.508 0.7366,0.7112 v 0.1016 h -4.3434 z"
         id="path17549"
         style="font-size:25.4px;line-height:0.8;font-family:'DT Nouveau';-inkscape-font-specification:'DT Nouveau';fill:#3b150b;fill-opacity:1;stroke-width:0.264583" />
      <path
         d="m 310.70533,78.720315 q -1.4986,0 -2.6162,-0.6096 -1.0922,-0.6096 -1.6764,-1.6002 -0.5842,-0.9906 -0.5842,-2.0828 0,-1.2954 0.6604,-2.286 0.6604,-1.016 1.7018,-1.5748 1.0668,-0.5588 2.2098,-0.5588 1.1684,0 1.9812,0.4572 0.8382,0.4318 1.2446,1.1176 0.4318,0.6604 0.4318,1.3462 0,0.7112 -0.381,1.1938 -0.381,0.4572 -1.0668,0.4572 -0.4318,0 -0.7366,-0.2286 -0.2794,-0.2286 -0.4064,-0.5588 l 0.1778,-0.0508 q 0.0254,0.1016 0.127,0.1778 0.1016,0.0508 0.2794,0.0508 0.3048,0 0.4826,-0.2286 0.2032,-0.2286 0.2032,-0.5588 0,-0.6096 -0.6096,-1.0922 -0.5842,-0.508 -1.651,-0.508 -0.5334,0 -1.1176,0.2794 -0.5842,0.254 -0.9906,0.8382 -0.381,0.5588 -0.381,1.397 0,1.2954 0.9144,2.0574 0.9398,0.7366 2.1844,0.7366 1.4478,0 2.413,-0.7874 0.9652,-0.8128 1.4224,-1.8542 0.4572,-1.0668 0.4572,-1.778 0,-1.7526 -0.7366,-2.794 -0.7112,-1.0668 -2.6162,-1.0668 h -1.6256 q -1.4224,0 -2.3368,-0.4318 -0.9144,-0.4572 -1.27,-1.0922 l 0.9652,-2.0574 0.1524,0.0508 q -0.0762,0.3048 0.127,0.7112 0.2032,0.381 0.8128,0.6858 0.635,0.3048 1.7526,0.3048 h 1.4986 q 2.2098,0 3.429,0.635 1.2192,0.635 1.6764,1.7526 0.4572,1.1176 0.4572,2.7686 v 4.572 q 0,0.762 0.3048,1.27 0.3048,0.508 0.7366,0.7112 v 0.1016 h -3.9116 v -0.1016 q 0.254,-0.2032 0.4064,-0.7112 0.1778,-0.508 0.1778,-1.27 v -1.3716 q -0.2794,1.397 -1.4224,2.4892 -1.143,1.0922 -3.2512,1.0922 z"
         id="path17551"
         style="font-size:25.4px;line-height:0.8;font-family:'DT Nouveau';-inkscape-font-specification:'DT Nouveau';fill:#3b150b;fill-opacity:1;stroke-width:0.264583" />
      <path
         d="m 329.80609,78.618715 q 0.3302,-0.2032 0.5334,-0.7112 0.2286,-0.508 0.2286,-1.27 v -17.3482 h 3.175 v 0.1016 q -0.381,0.2032 -0.635,0.7112 -0.254,0.508 -0.254,1.27 v 15.2654 q 0,0.762 0.2794,1.27 0.3048,0.508 0.7366,0.7112 v 0.1016 h -4.064 z m -9.3218,-5.5626 q 0,-1.6256 0.762,-3.0734 0.762,-1.4478 2.1082,-2.3114 1.3462,-0.889 2.9972,-0.889 0.9144,0 1.8542,0.254 0.9398,0.2286 1.6002,0.762 v 2.3622 q -0.4826,-0.6604 -1.3462,-1.0414 -0.8382,-0.381 -1.778,-0.381 -1.016,0 -1.905,0.5334 -0.889,0.5334 -1.4224,1.524 -0.5334,0.9906 -0.5334,2.3368 0,1.6002 0.889,2.6162 0.889,1.016 2.2352,1.016 0.8636,0 1.3716,-0.508 0.5334,-0.508 0.5334,-1.3716 0,-0.7112 -0.4572,-1.1176 -0.4572,-0.4318 -1.1176,-0.4318 -0.3048,0 -0.508,0.1524 -0.2032,0.1524 -0.254,0.3048 l -0.2286,-0.0762 q 0.127,-0.508 0.5842,-0.8636 0.4826,-0.381 1.27,-0.381 1.2446,0 1.9558,0.762 0.7112,0.7366 0.7112,1.8796 0,0.9652 -0.508,1.8034 -0.508,0.8128 -1.4224,1.3208 -0.9144,0.4826 -2.032,0.4826 -1.5494,0 -2.7686,-0.7112 -1.2192,-0.7112 -1.905,-2.0066 -0.6858,-1.2954 -0.6858,-2.9464 z"
         id="path17553"
         style="font-size:25.4px;line-height:0.8;font-family:'DT Nouveau';-inkscape-font-specification:'DT Nouveau';fill:#3b150b;fill-opacity:1;stroke-width:0.264583" />
    </g>
    <g
       id="g8256"
       style="fill:#b65d21;fill-opacity:1"
       transform="translate(4.2333355,4.2333339)">
      <path
         d="m 127.85127,61.499115 q 0,-0.7112 -0.3048,-1.143 -0.2794,-0.4318 -0.7112,-0.5842 v -0.2286 h 4.6228 v 0.2286 q -0.4826,0.1524 -0.8382,0.5842 -0.3302,0.4318 -0.3302,1.143 v 14.4018 h -2.4384 z m -1.524,14.9098 5.969,0.0254 v -0.0254 h 5.0038 q 1.3462,0 2.3114,-0.6858 0.9652,-0.6858 1.4478,-1.651 h 0.3302 l -1.524,4.5212 h -13.5382 z"
         id="path7205"
         style="font-size:25.4px;line-height:0.8;font-family:'DT Nouveau';-inkscape-font-specification:'DT Nouveau';fill:#b65d21;fill-opacity:1;stroke-width:0.264583" />
      <path
         d="m 147.28221,78.720315 q -1.4986,0 -2.6162,-0.6096 -1.0922,-0.6096 -1.6764,-1.6002 -0.5842,-0.9906 -0.5842,-2.0828 0,-1.2954 0.6604,-2.286 0.6604,-1.016 1.7018,-1.5748 1.0668,-0.5588 2.2098,-0.5588 1.1684,0 1.9812,0.4572 0.8382,0.4318 1.2446,1.1176 0.4318,0.6604 0.4318,1.3462 0,0.7112 -0.381,1.1938 -0.381,0.4572 -1.0668,0.4572 -0.4318,0 -0.7366,-0.2286 -0.2794,-0.2286 -0.4064,-0.5588 l 0.1778,-0.0508 q 0.0254,0.1016 0.127,0.1778 0.1016,0.0508 0.2794,0.0508 0.3048,0 0.4826,-0.2286 0.2032,-0.2286 0.2032,-0.5588 0,-0.6096 -0.6096,-1.0922 -0.5842,-0.508 -1.651,-0.508 -0.5334,0 -1.1176,0.2794 -0.5842,0.254 -0.9906,0.8382 -0.381,0.5588 -0.381,1.397 0,1.2954 0.9144,2.0574 0.9398,0.7366 2.1844,0.7366 1.4478,0 2.413,-0.7874 0.9652,-0.8128 1.4224,-1.8542 0.4572,-1.0668 0.4572,-1.778 0,-1.7526 -0.7366,-2.794 -0.7112,-1.0668 -2.6162,-1.0668 h -1.6256 q -1.4224,0 -2.3368,-0.4318 -0.9144,-0.4572 -1.27,-1.0922 l 0.9652,-2.0574 0.1524,0.0508 q -0.0762,0.3048 0.127,0.7112 0.2032,0.381 0.8128,0.6858 0.635,0.3048 1.7526,0.3048 h 1.4986 q 2.2098,0 3.429,0.635 1.2192,0.635 1.6764,1.7526 0.4572,1.1176 0.4572,2.7686 v 4.572 q 0,0.762 0.3048,1.27 0.3048,0.508 0.7366,0.7112 v 0.1016 h -3.9116 v -0.1016 q 0.254,-0.2032 0.4064,-0.7112 0.1778,-0.508 0.1778,-1.27 v -1.3716 q -0.2794,1.397 -1.4224,2.4892 -1.143,1.0922 -3.2512,1.0922 z"
         id="path7207"
         style="font-size:25.4px;line-height:0.8;font-family:'DT Nouveau';-inkscape-font-specification:'DT Nouveau';fill:#b65d21;fill-opacity:1;stroke-width:0.264583" />
      <path
         d="m 164.14778,78.491715 q 0.4318,-0.2032 0.7366,-0.7112 0.3048,-0.508 0.3048,-1.27 v -7.5184 q 0,-0.762 -0.254,-1.27 -0.254,-0.508 -0.635,-0.7112 v -0.1016 h 3.175 v 3.8862 q 0.127,-0.7874 0.6096,-1.7018 0.4826,-0.9398 1.3208,-1.6256 0.8382,-0.6858 2.0066,-0.6858 1.651,0 2.54,0.9906 0.889,0.9652 0.889,2.3114 0,1.27 -0.7874,2.2098 -0.7874,0.9144 -2.159,0.9144 -0.8128,0 -1.2954,-0.3556 -0.4572,-0.381 -0.5588,-0.889 l 0.2286,-0.0762 q 0.0508,0.1524 0.254,0.3048 0.2032,0.1524 0.5334,0.1524 0.7112,0 1.143,-0.508 0.4318,-0.508 0.4318,-1.1938 0,-0.7112 -0.4826,-1.1938 -0.4572,-0.508 -1.397,-0.508 -1.0922,0 -1.8288,0.8382 -0.7366,0.8128 -1.0922,1.8542 -0.3556,1.0414 -0.3556,1.5748 v 3.302 q 0,0.762 0.2794,1.27 0.3048,0.508 0.7366,0.7112 v 0.1016 h -4.3434 z"
         id="path7209"
         style="font-size:25.4px;line-height:0.8;font-family:'DT Nouveau';-inkscape-font-specification:'DT Nouveau';fill:#b65d21;fill-opacity:1;stroke-width:0.264583" />
      <path
         d="m 182.46113,78.720315 q -1.6764,0 -3.0734,-0.7874 -1.397,-0.8128 -2.2098,-2.1844 -0.8128,-1.3716 -0.8128,-2.9972 0,-1.6256 0.8128,-2.9972 0.8128,-1.3716 2.2098,-2.159 1.397,-0.8128 3.0734,-0.8128 1.651,0 3.048,0.8128 1.4224,0.7874 2.2352,2.159 0.8128,1.3716 0.8128,2.9972 0,1.6256 -0.8128,2.9972 -0.8128,1.3716 -2.2352,2.1844 -1.397,0.7874 -3.048,0.7874 z m -3.7592,-5.969 q 0,1.0922 0.508,2.0066 0.508,0.9144 1.3716,1.4732 0.8636,0.5334 1.8796,0.5334 1.016,0 1.8796,-0.5334 0.8636,-0.5588 1.3716,-1.4732 0.508,-0.9144 0.508,-2.0066 0,-1.0922 -0.508,-2.0066 -0.508,-0.9144 -1.3716,-1.4478 -0.8636,-0.5588 -1.8796,-0.5588 -1.016,0 -1.8796,0.5588 -0.8636,0.5334 -1.3716,1.4478 -0.508,0.9144 -0.508,2.0066 z"
         id="path7211"
         style="font-size:25.4px;line-height:0.8;font-family:'DT Nouveau';-inkscape-font-specification:'DT Nouveau';fill:#b65d21;fill-opacity:1;stroke-width:0.264583" />
      <path
         d="m 196.4565,78.720315 q -1.6764,0 -3.0734,-0.7874 -1.397,-0.8128 -2.2098,-2.1844 -0.8128,-1.3716 -0.8128,-2.9972 0,-1.6256 0.8128,-2.9972 0.8128,-1.3716 2.2098,-2.159 1.397,-0.8128 3.0734,-0.8128 1.651,0 3.048,0.8128 1.4224,0.7874 2.2352,2.159 0.8128,1.3716 0.8128,2.9972 0,1.6256 -0.8128,2.9972 -0.8128,1.3716 -2.2352,2.1844 -1.397,0.7874 -3.048,0.7874 z m -3.7592,-5.969 q 0,1.0922 0.508,2.0066 0.508,0.9144 1.3716,1.4732 0.8636,0.5334 1.8796,0.5334 1.016,0 1.8796,-0.5334 0.8636,-0.5588 1.3716,-1.4732 0.508,-0.9144 0.508,-2.0066 0,-1.0922 -0.508,-2.0066 -0.508,-0.9144 -1.3716,-1.4478 -0.8636,-0.5588 -1.8796,-0.5588 -1.016,0 -1.8796,0.5588 -0.8636,0.5334 -1.3716,1.4478 -0.508,0.9144 -0.508,2.0066 z"
         id="path7213"
         style="font-size:25.4px;line-height:0.8;font-family:'DT Nouveau';-inkscape-font-specification:'DT Nouveau';fill:#b65d21;fill-opacity:1;stroke-width:0.264583" />
      <path
         d="m 205.54965,93.81109 c -1.3934,-5.200235 1.12296,-8.238961 1.143,-11.44683 V 68.687315 c -3.54187,0 -4.52344,-1.085829 -4.52344,-1.085829 1.86347,-0.136627 2.39057,0.28798 4.52344,-0.565171 v -1.524 c 0,-0.762 -0.11007,-1.3462 -0.3302,-1.7526 -0.22013,-0.423333 -0.49107,-0.668867 -0.8128,-0.7366 v -0.1016 l 4.445,-0.762 v 0.1016 c -0.28787,0.06773 -0.5334,0.313267 -0.7366,0.7366 -0.18627,0.4064 -0.2794,0.9906 -0.2794,1.7526 v 2.286 c 1.68294,0.724443 3.35895,-0.132861 4.78197,0.02226 0,0 -1.65349,1.628743 -4.78197,1.628743 -0.301,15.118044 4.97703,14.450096 2.94537,29.421363 -1.22492,-6.840306 -1.49118,-4.46161 -2.15234,-6.929095 -2.24272,1.738784 -2.56141,12.105254 -2.56141,12.105254 -1.24238,-6.059693 -0.19711,-12.695149 0.10028,-15.318841 -1.16406,2.266829 -2.32747,2.281801 -1.7609,5.845094 z"
         id="path7215"
         style="font-size:25.4px;line-height:0.8;font-family:'DT Nouveau';-inkscape-font-specification:'DT Nouveau';fill:url(#linearGradient17267);fill-opacity:1;stroke-width:0.264583"
         sodipodi:nodetypes="cccccsccccccsccccccccc" />
      <path
         d="m 229.55262,78.618715 q 0.3302,-0.2032 0.5334,-0.7112 0.2286,-0.508 0.2286,-1.27 v -17.3482 h 3.17499 v 0.1016 q -0.381,0.2032 -0.635,0.7112 -0.254,0.508 -0.254,1.27 v 15.2654 q 0,0.762 0.2794,1.27 0.3048,0.508 0.7366,0.7112 v 0.1016 h -4.06399 z m -9.3218,-5.5626 q 0,-1.6256 0.762,-3.0734 0.762,-1.4478 2.1082,-2.3114 1.3462,-0.889 2.9972,-0.889 0.9144,0 1.8542,0.254 0.9398,0.2286 1.6002,0.762 v 2.3622 q -0.4826,-0.6604 -1.3462,-1.0414 -0.8382,-0.381 -1.778,-0.381 -1.016,0 -1.905,0.5334 -0.889,0.5334 -1.4224,1.524 -0.5334,0.9906 -0.5334,2.3368 0,1.6002 0.889,2.6162 0.889,1.016 2.2352,1.016 0.8636,0 1.3716,-0.508 0.5334,-0.508 0.5334,-1.3716 0,-0.7112 -0.4572,-1.1176 -0.4572,-0.4318 -1.1176,-0.4318 -0.3048,0 -0.508,0.1524 -0.2032,0.1524 -0.254,0.3048 l -0.2286,-0.0762 q 0.127,-0.508 0.5842,-0.8636 0.4826,-0.381 1.27,-0.381 1.2446,0 1.9558,0.762 0.7112,0.7366 0.7112,1.8796 0,0.9652 -0.508,1.8034 -0.508,0.8128 -1.4224,1.3208 -0.9144,0.4826 -2.032,0.4826 -1.5494,0 -2.7686,-0.7112 -1.2192,-0.7112 -1.905,-2.0066 -0.6858,-1.2954 -0.6858,-2.9464 z"
         id="path7217"
         style="font-size:25.4px;line-height:0.8;font-family:'DT Nouveau';-inkscape-font-specification:'DT Nouveau';fill:#b65d21;fill-opacity:1;stroke-width:0.264583" />
      <path
         d="m 236.74078,65.207515 -0.254,-3.7846 q -0.0508,-0.762 -0.2794,-1.27 -0.2286,-0.508 -0.508,-0.7112 v -0.1016 h 3.8354 v 0.1016 q -0.2794,0.2032 -0.508,0.7112 -0.2032,0.508 -0.254,1.27 l -0.254,3.7846 z"
         id="path7219"
         style="font-size:25.4px;line-height:0.8;font-family:'DT Nouveau';-inkscape-font-specification:'DT Nouveau';fill:#b65d21;fill-opacity:1;stroke-width:0.264583" />
      <path
         d="m 243.52254,61.727715 q -0.9652,0 -1.524,0.3048 -0.5588,0.2794 -0.7112,0.7112 h -0.4826 l 1.27,-3.2004 h 13.2842 l 1.016,3.2512 h -0.3302 q -0.1524,-0.4572 -0.7874,-0.762 -0.6096,-0.3048 -1.7018,-0.3048 z m -1.2954,16.637 q 0.5334,-0.1524 0.889,-0.7112 0.381,-0.5588 0.381,-1.524 v -13.8938 h 2.4384 v 14.1732 h 7.874 q 0.9652,0 1.6002,-0.4572 0.635,-0.4572 0.889,-1.1176 h 0.3302 l -1.016,3.7592 h -13.3858 z m 4.2164,-10.2616 h 4.7244 v -1.9812 h 1.8288 v 6.0452 h -1.8288 v -1.9812 h -4.7244 z"
         id="path7221"
         style="font-size:25.4px;line-height:0.8;font-family:'DT Nouveau';-inkscape-font-specification:'DT Nouveau';fill:#b65d21;fill-opacity:1;stroke-width:0.264583" />
      <path
         d="m 258.76253,78.491715 q 0.4826,-0.2032 0.8128,-0.8382 0.3302,-0.635 0.3302,-1.651 v -14.6304 q 0,-0.762 -0.3048,-1.27 -0.2794,-0.508 -0.7112,-0.7112 v -0.1016 h 4.318 v 0.1016 q -0.4318,0.2032 -0.7366,0.7112 -0.2794,0.508 -0.2794,1.27 v 14.6304 q 0,1.016 0.3556,1.651 0.381,0.635 0.9144,0.8382 v 0.1016 h -4.699 z"
         id="path7223"
         style="font-size:25.4px;line-height:0.8;font-family:'DT Nouveau';-inkscape-font-specification:'DT Nouveau';fill:#b65d21;fill-opacity:1;stroke-width:0.264583" />
      <path
         d="m 274.23109,78.618715 q 0.3302,-0.2032 0.5334,-0.7112 0.2286,-0.508 0.2286,-1.27 v -17.3482 h 3.175 v 0.1016 q -0.381,0.2032 -0.635,0.7112 -0.254,0.508 -0.254,1.27 v 15.2654 q 0,0.762 0.2794,1.27 0.3048,0.508 0.7366,0.7112 v 0.1016 h -4.064 z m -9.3218,-5.5626 q 0,-1.6256 0.762,-3.0734 0.762,-1.4478 2.1082,-2.3114 1.3462,-0.889 2.9972,-0.889 0.9144,0 1.8542,0.254 0.9398,0.2286 1.6002,0.762 v 2.3622 q -0.4826,-0.6604 -1.3462,-1.0414 -0.8382,-0.381 -1.778,-0.381 -1.016,0 -1.905,0.5334 -0.889,0.5334 -1.4224,1.524 -0.5334,0.9906 -0.5334,2.3368 0,1.6002 0.889,2.6162 0.889,1.016 2.2352,1.016 0.8636,0 1.3716,-0.508 0.5334,-0.508 0.5334,-1.3716 0,-0.7112 -0.4572,-1.1176 -0.4572,-0.4318 -1.1176,-0.4318 -0.3048,0 -0.508,0.1524 -0.2032,0.1524 -0.254,0.3048 l -0.2286,-0.0762 q 0.127,-0.508 0.5842,-0.8636 0.4826,-0.381 1.27,-0.381 1.2446,0 1.9558,0.762 0.7112,0.7366 0.7112,1.8796 0,0.9652 -0.508,1.8034 -0.508,0.8128 -1.4224,1.3208 -0.9144,0.4826 -2.032,0.4826 -1.5494,0 -2.7686,-0.7112 -1.2192,-0.7112 -1.905,-2.0066 -0.6858,-1.2954 -0.6858,-2.9464 z"
         id="path7225"
         style="font-size:25.4px;line-height:0.8;font-family:'DT Nouveau';-inkscape-font-specification:'DT Nouveau';fill:#b65d21;fill-opacity:1;stroke-width:0.264583" />
      <path
         d="m 286.11822,78.720315 q -1.6764,0 -3.0734,-0.7874 -1.397,-0.8128 -2.2098,-2.1844 -0.8128,-1.3716 -0.8128,-2.9972 0,-1.6256 0.8128,-2.9972 0.8128,-1.3716 2.2098,-2.159 1.397,-0.8128 3.0734,-0.8128 1.651,0 3.048,0.8128 1.4224,0.7874 2.2352,2.159 0.8128,1.3716 0.8128,2.9972 0,1.6256 -0.8128,2.9972 -0.8128,1.3716 -2.2352,2.1844 -1.397,0.7874 -3.048,0.7874 z m -3.7592,-5.969 q 0,1.0922 0.508,2.0066 0.508,0.9144 1.3716,1.4732 0.8636,0.5334 1.8796,0.5334 1.016,0 1.8796,-0.5334 0.8636,-0.5588 1.3716,-1.4732 0.508,-0.9144 0.508,-2.0066 0,-1.0922 -0.508,-2.0066 -0.508,-0.9144 -1.3716,-1.4478 -0.8636,-0.5588 -1.8796,-0.5588 -1.016,0 -1.8796,0.5588 -0.8636,0.5334 -1.3716,1.4478 -0.508,0.9144 -0.508,2.0066 z"
         id="path7227"
         style="font-size:25.4px;line-height:0.8;font-family:'DT Nouveau';-inkscape-font-specification:'DT Nouveau';fill:#b65d21;fill-opacity:1;stroke-width:0.264583" />
      <path
         d="m 293.68739,78.491715 q 0.4318,-0.2032 0.7366,-0.7112 0.3048,-0.508 0.3048,-1.27 v -7.5184 q 0,-0.762 -0.254,-1.27 -0.254,-0.508 -0.635,-0.7112 v -0.1016 h 3.175 v 3.8862 q 0.127,-0.7874 0.6096,-1.7018 0.4826,-0.9398 1.3208,-1.6256 0.8382,-0.6858 2.0066,-0.6858 1.651,0 2.54,0.9906 0.889,0.9652 0.889,2.3114 0,1.27 -0.7874,2.2098 -0.7874,0.9144 -2.159,0.9144 -0.8128,0 -1.2954,-0.3556 -0.4572,-0.381 -0.5588,-0.889 l 0.2286,-0.0762 q 0.0508,0.1524 0.254,0.3048 0.2032,0.1524 0.5334,0.1524 0.7112,0 1.143,-0.508 0.4318,-0.508 0.4318,-1.1938 0,-0.7112 -0.4826,-1.1938 -0.4572,-0.508 -1.397,-0.508 -1.0922,0 -1.8288,0.8382 -0.7366,0.8128 -1.0922,1.8542 -0.3556,1.0414 -0.3556,1.5748 v 3.302 q 0,0.762 0.2794,1.27 0.3048,0.508 0.7366,0.7112 v 0.1016 h -4.3434 z"
         id="path7229"
         style="font-size:25.4px;line-height:0.8;font-family:'DT Nouveau';-inkscape-font-specification:'DT Nouveau';fill:#b65d21;fill-opacity:1;stroke-width:0.264583" />
      <path
         d="m 310.70533,78.720315 q -1.4986,0 -2.6162,-0.6096 -1.0922,-0.6096 -1.6764,-1.6002 -0.5842,-0.9906 -0.5842,-2.0828 0,-1.2954 0.6604,-2.286 0.6604,-1.016 1.7018,-1.5748 1.0668,-0.5588 2.2098,-0.5588 1.1684,0 1.9812,0.4572 0.8382,0.4318 1.2446,1.1176 0.4318,0.6604 0.4318,1.3462 0,0.7112 -0.381,1.1938 -0.381,0.4572 -1.0668,0.4572 -0.4318,0 -0.7366,-0.2286 -0.2794,-0.2286 -0.4064,-0.5588 l 0.1778,-0.0508 q 0.0254,0.1016 0.127,0.1778 0.1016,0.0508 0.2794,0.0508 0.3048,0 0.4826,-0.2286 0.2032,-0.2286 0.2032,-0.5588 0,-0.6096 -0.6096,-1.0922 -0.5842,-0.508 -1.651,-0.508 -0.5334,0 -1.1176,0.2794 -0.5842,0.254 -0.9906,0.8382 -0.381,0.5588 -0.381,1.397 0,1.2954 0.9144,2.0574 0.9398,0.7366 2.1844,0.7366 1.4478,0 2.413,-0.7874 0.9652,-0.8128 1.4224,-1.8542 0.4572,-1.0668 0.4572,-1.778 0,-1.7526 -0.7366,-2.794 -0.7112,-1.0668 -2.6162,-1.0668 h -1.6256 q -1.4224,0 -2.3368,-0.4318 -0.9144,-0.4572 -1.27,-1.0922 l 0.9652,-2.0574 0.1524,0.0508 q -0.0762,0.3048 0.127,0.7112 0.2032,0.381 0.8128,0.6858 0.635,0.3048 1.7526,0.3048 h 1.4986 q 2.2098,0 3.429,0.635 1.2192,0.635 1.6764,1.7526 0.4572,1.1176 0.4572,2.7686 v 4.572 q 0,0.762 0.3048,1.27 0.3048,0.508 0.7366,0.7112 v 0.1016 h -3.9116 v -0.1016 q 0.254,-0.2032 0.4064,-0.7112 0.1778,-0.508 0.1778,-1.27 v -1.3716 q -0.2794,1.397 -1.4224,2.4892 -1.143,1.0922 -3.2512,1.0922 z"
         id="path7231"
         style="font-size:25.4px;line-height:0.8;font-family:'DT Nouveau';-inkscape-font-specification:'DT Nouveau';fill:#b65d21;fill-opacity:1;stroke-width:0.264583" />
      <path
         d="m 329.80609,78.618715 q 0.3302,-0.2032 0.5334,-0.7112 0.2286,-0.508 0.2286,-1.27 v -17.3482 h 3.175 v 0.1016 q -0.381,0.2032 -0.635,0.7112 -0.254,0.508 -0.254,1.27 v 15.2654 q 0,0.762 0.2794,1.27 0.3048,0.508 0.7366,0.7112 v 0.1016 h -4.064 z m -9.3218,-5.5626 q 0,-1.6256 0.762,-3.0734 0.762,-1.4478 2.1082,-2.3114 1.3462,-0.889 2.9972,-0.889 0.9144,0 1.8542,0.254 0.9398,0.2286 1.6002,0.762 v 2.3622 q -0.4826,-0.6604 -1.3462,-1.0414 -0.8382,-0.381 -1.778,-0.381 -1.016,0 -1.905,0.5334 -0.889,0.5334 -1.4224,1.524 -0.5334,0.9906 -0.5334,2.3368 0,1.6002 0.889,2.6162 0.889,1.016 2.2352,1.016 0.8636,0 1.3716,-0.508 0.5334,-0.508 0.5334,-1.3716 0,-0.7112 -0.4572,-1.1176 -0.4572,-0.4318 -1.1176,-0.4318 -0.3048,0 -0.508,0.1524 -0.2032,0.1524 -0.254,0.3048 l -0.2286,-0.0762 q 0.127,-0.508 0.5842,-0.8636 0.4826,-0.381 1.27,-0.381 1.2446,0 1.9558,0.762 0.7112,0.7366 0.7112,1.8796 0,0.9652 -0.508,1.8034 -0.508,0.8128 -1.4224,1.3208 -0.9144,0.4826 -2.032,0.4826 -1.5494,0 -2.7686,-0.7112 -1.2192,-0.7112 -1.905,-2.0066 -0.6858,-1.2954 -0.6858,-2.9464 z"
         id="path7233"
         style="font-size:25.4px;line-height:0.8;font-family:'DT Nouveau';-inkscape-font-specification:'DT Nouveau';fill:#b65d21;fill-opacity:1;stroke-width:0.264583" />
    </g>
  </g>
</svg>
