<?xml version="1.0" encoding="UTF-8" standalone="no"?>
<svg
   viewBox="0 0 15.999999 16"
   version="1.1"
   id="svg4"
   sodipodi:docname="hand.svg"
   width="16"
   height="16"
   inkscape:version="1.1 (c68e22c387, 2021-05-23)"
   xmlns:inkscape="http://www.inkscape.org/namespaces/inkscape"
   xmlns:sodipodi="http://sodipodi.sourceforge.net/DTD/sodipodi-0.dtd"
   xmlns="http://www.w3.org/2000/svg"
   xmlns:svg="http://www.w3.org/2000/svg">
  <defs
     id="defs8" />
  <sodipodi:namedview
     id="namedview6"
     pagecolor="#505050"
     bordercolor="#eeeeee"
     borderopacity="1"
     inkscape:pageshadow="0"
     inkscape:pageopacity="0"
     inkscape:pagecheckerboard="0"
     showgrid="false"
     inkscape:zoom="11.21875"
     inkscape:cx="20.05571"
     inkscape:cy="13.415041"
     inkscape:window-width="1920"
     inkscape:window-height="991"
     inkscape:window-x="-9"
     inkscape:window-y="-9"
     inkscape:window-maximized="1"
     inkscape:current-layer="svg4" />
  <!--! Font Awesome Pro 6.1.1 by @fontawesome - https://fontawesome.com License - https://fontawesome.com/license (Commercial License) Copyright 2022 Fonticons, Inc. -->
  <g
     id="g1638"
     transform="matrix(0,0.02865137,-0.02870378,0,15.348168,1.5820935)"
     style="fill:#a5efac;fill-opacity:1;stroke:none;stroke-width:15.1528;stroke-miterlimit:4;stroke-dasharray:none;stroke-opacity:1;paint-order:normal">
    <path
       d="m 400,224 c -9.148,0 -17.62,2.697 -24.89,7.143 C 370.9,208.9 351.5,192 328,192 c -17.38,0 -32.46,9.33 -40.89,23.17 C 282.1,192.9 263.5,176 240,176 c -12.35,0 -23.49,4.797 -32,12.46 V 40 C 208,17.91 190.1,0 168.9,0 145.9,0 128,17.91 128,40 V 362.7 L 72,288 C 64.15,277.5 52.13,272 39.97,272 18.75,272 0,289.06 0,312.02 0,320.376 2.608,328.8 8.005,336 l 91.22,121.6 C 124.8,491.7 165.5,512 208,512 h 96 c 79.4,0 144,-64.6 144,-144 v -96 c 0,-26.5 -21.5,-48 -48,-48 z"
       id="path2"
       style="fill:#a5efac;fill-opacity:1;stroke:none;stroke-width:15.1528;stroke-miterlimit:4;stroke-dasharray:none;stroke-opacity:1;paint-order:normal"
       sodipodi:nodetypes="scscscsssccssccsssss" />
  </g>
</svg>
