<?xml version="1.0" encoding="UTF-8" standalone="no"?>
<svg
   viewBox="0 0 32 32"
   version="1.1"
   id="svg4"
   sodipodi:docname="hand_outlined.svg"
   inkscape:version="1.1 (c68e22c387, 2021-05-23)"
   width="32"
   height="32"
   xmlns:inkscape="http://www.inkscape.org/namespaces/inkscape"
   xmlns:sodipodi="http://sodipodi.sourceforge.net/DTD/sodipodi-0.dtd"
   xmlns="http://www.w3.org/2000/svg"
   xmlns:svg="http://www.w3.org/2000/svg">
  <defs
     id="defs8" />
  <sodipodi:namedview
     id="namedview6"
     pagecolor="#505050"
     bordercolor="#eeeeee"
     borderopacity="1"
     inkscape:pageshadow="0"
     inkscape:pageopacity="0"
     inkscape:pagecheckerboard="0"
     showgrid="false"
     inkscape:zoom="19.995408"
     inkscape:cx="12.50287"
     inkscape:cy="14.828404"
     inkscape:window-width="1920"
     inkscape:window-height="991"
     inkscape:window-x="-9"
     inkscape:window-y="-9"
     inkscape:window-maximized="1"
     inkscape:current-layer="svg4" />
  <!--! Font Awesome Pro 6.1.1 by @fontawesome - https://fontawesome.com License - https://fontawesome.com/license (Commercial License) Copyright 2022 Fonticons, Inc. -->
  <g
     id="path2"
     style="stroke:none;stroke-width:14.2222;stroke-miterlimit:4;stroke-dasharray:none;stroke-opacity:1"
     transform="matrix(0.16869185,0,0,0.16869185,-2.793521,-9.1913152)">
    <g
       transform="translate(28.444511,85.333324)"
       id="g1988"
       style="stroke:none">
      <path
         style="color:#000000;fill:#000000;stroke:none;-inkscape-stroke:none;paint-order:stroke markers fill"
         d="M 47.585937,0 C 35.486946,0 24.056294,5.8137284 16.914062,15.599609 l -0.0039,0.0059 -7.8437497,10.792968 v 0.002 C 3.1770613,34.513779 0,44.278129 0,54.310547 v 26.28125 C 0,106.68734 21.30957,128 47.408203,128 h 22.119141 l -0.384766,-0.66016 C 70.536534,127.72697 71.975263,128 73.482422,128 h 18.96289 c 9.074528,0 16.591798,-7.51727 16.591798,-16.5918 0,-4.72819 -2.0646,-9.00069 -5.29883,-12.039059 8.23125,-0.929783 14.7793,-7.944546 14.7793,-16.40625 0,-4.728276 -2.0645,-8.998729 -5.29883,-12.03711 C 121.45091,69.996891 128,62.979952 128,54.517578 c 0,-4.624675 -1.96244,-8.825971 -5.07422,-11.851562 h 26.4082 c 9.07483,0 16.5918,-7.510026 16.5918,-16.591797 0,-9.081771 -7.51697,-16.5917971 -16.5918,-16.5917971 H 82.664062 C 79.35576,3.8580093 73.302129,0 66.371094,0 Z m 0,14.222656 h 18.785157 c 2.706212,0 4.740234,2.036577 4.740234,4.740235 v 37.925781 c 0,2.708364 -1.83881,4.474609 -4.740234,4.474609 -2.112736,0 -2.774509,-0.593546 -3.638672,-1.703125 -0.864164,-1.109579 -1.369141,-3.051702 -1.369141,-3.71289 V 35.289062 l -0.04687,0.804688 c 0.462583,-4.060455 -1.555543,-7.293497 -3.722656,-9.226563 -2.167113,-1.933065 -4.751327,-3.164062 -8.082031,-3.164062 -6.66141,0 -11.585938,4.924527 -11.585938,11.585937 v 21.59961 c 0,12.308328 8.010207,22.686951 19.001953,26.599609 0.04875,2.444909 0.401919,4.793759 1.035157,6.992188 -6.356926,4.737586 -10.554688,12.318971 -10.554688,20.927731 0,0.80674 0.09442,1.58466 0.169922,2.36914 h -0.169922 c -18.41095,0 -33.185547,-14.777442 -33.185547,-33.185543 v -26.28125 c 0,-7.03333 2.219419,-13.859168 6.351563,-19.552735 l 0.002,-0.002 7.826172,-10.771484 c 4.448867,-6.095585 11.667791,-9.761719 19.183593,-9.761719 z m 47.228516,9.480469 h 54.519527 c 1.39629,0 2.36914,0.969913 2.36914,2.371094 0,1.401182 -0.97285,2.371093 -2.36914,2.371093 H 94.814453 Z m 0,28.445312 H 111.4082 c 1.39629,0 2.36914,0.967969 2.36914,2.369141 0,1.401186 -0.97285,2.371094 -2.36914,2.371094 H 94.814453 Z m -11.851562,28.44336 h 18.962889 c 1.39627,0 2.37109,0.969913 2.3711,2.371094 0,1.401194 -0.97483,2.371093 -2.3711,2.371093 H 82.962891 c -1.396279,0 -2.371094,-0.969903 -2.371094,-2.371093 0,-1.414353 0.956735,-2.371094 2.371094,-2.371094 z m -9.480469,28.445313 h 18.96289 c 1.39628,0 2.369141,0.96993 2.369141,2.37109 0,1.41436 -0.954789,2.36914 -2.369141,2.36914 h -18.96289 c -1.396279,0 -2.371094,-0.96794 -2.371094,-2.36914 0,-1.40116 0.974815,-2.37109 2.371094,-2.37109 z"
         id="path1127" />
      <path
         style="color:#000000;fill:#ffffff;stroke:none;stroke-width:14.2222;-inkscape-stroke:none;paint-order:stroke markers fill"
         d="m 73.481471,82.962949 c 0,5.241484 4.245925,9.481484 9.481481,9.481484 h 18.962968 c 5.23555,0 9.48147,-4.24 9.48147,-9.481484 0,-5.241476 -4.24592,-9.481476 -9.48147,-9.481476 H 82.962952 c -5.244445,0 -9.481481,4.237032 -9.481481,9.481476 z m 12.918518,-18.96296 h 25.007401 c 5.23556,0 9.48149,-4.24 9.48149,-9.481484 0,-5.241476 -4.24593,-9.481476 -9.48149,-9.481476 H 87.703693 v 11.851849 c 0,2.518515 -0.503704,4.888889 -1.303704,7.111111 z m 1.303704,-28.444444 h 61.629627 c 5.23556,0 9.48149,-4.24 9.48149,-9.481482 0,-5.241481 -4.24593,-9.481481 -9.48149,-9.481481 H 87.466656 c 0.08889,0.788147 0.237037,1.57037 0.237037,2.37037 z m 14.222227,75.851845 c 0,-5.24147 -4.245931,-9.48147 -9.481487,-9.48147 H 73.481471 c -5.235556,0 -9.481482,4.24 -9.481482,9.48147 0,5.24149 4.245926,9.48149 9.481482,9.48149 h 18.962962 c 5.244445,0 9.481487,-4.23704 9.481487,-9.48149 z M 66.992582,93.570362 c -1.807408,-3.022222 -2.992593,-6.666666 -2.992593,-10.607413 0,-1.708444 0.32,-3.330364 0.743704,-4.903698 C 53.748137,77.214807 45.037026,68.118505 45.037026,56.888878 v -21.6 c 0,-2.340741 2.133334,-4.474074 4.474074,-4.474074 2.340741,0 5.007407,2.133333 4.740741,4.474074 v 20.657778 c 0,4.853333 3.614815,12.527404 12.118519,12.527404 6.548147,0 11.851851,-5.037031 11.851851,-11.585182 V 18.962952 c 0,-6.545185 -5.303704,-11.8518518 -11.851851,-11.8518518 H 47.585174 c -9.807407,0 -19.131852,4.7407408 -24.927407,12.6814818 L 14.82073,30.577767 c -5.0112594,6.903704 -7.7096298,15.2 -7.7096298,23.733333 v 26.281485 c 0,22.251845 18.0414818,40.296295 40.2962958,40.296295 h 9.742222 c -1.623703,-2.78518 -2.631111,-6.01482 -2.631111,-9.48149 0,-8.26666 5.333334,-15.229623 12.474075,-17.837028 z"
         id="path1129" />
    </g>
  </g>
</svg>
